Hack-BoldItalic-PS.ufo
<glyph name="quotedbl" format="1">
  <advance width="1233"/>
  <unicode hex="0022"/>
  <outline>
    <contour>
      <point x="231" y="1493" type="line" name="sh01"/>
      <point x="487" y="1493" type="line" name="sh02"/>
      <point x="487" y="938" type="line" name="av01"/>
      <point x="231" y="938" type="line"/>
    </contour>
    <contour>
      <point x="743" y="1493" type="line" name="ah01"/>
      <point x="999" y="1493" type="line" name="sh03"/>
      <point x="999" y="938" type="line" name="av02"/>
      <point x="743" y="938" type="line"/>
    </contour>
  </outline>
</glyph>
<glyph name="three" format="1">
  <advance width="1233"/>
  <unicode hex="0033"/>
  <outline>
    <contour>
      <point x="421" y="-29" type="curve" smooth="yes" name="dv01"/>
      <point x="353" y="-29"/>
      <point x="285" y="-23"/>
      <point x="206" y="-10" type="curve" smooth="yes"/>
      <point x="122" y="5"/>
      <point x="49" y="22" name="dv02"/>
      <point x="-31" y="45" type="curve"/>
      <point x="23" y="315" type="line" name="dh01"/>
      <point x="90" y="283"/>
      <point x="158" y="260" name="dv03"/>
      <point x="223" y="245" type="curve" smooth="yes"/>
      <point x="292" y="229"/>
      <point x="365" y="221" name="dv04"/>
      <point x="430" y="221" type="curve" smooth="yes"/>
      <point x="547" y="221" name="ih01"/>
      <point x="618" y="247"/>
      <point x="669" y="290" type="curve" smooth="yes" name="sv01"/>
      <point x="720" y="333"/>
      <point x="750" y="397"/>
      <point x="750" y="477" type="curve" smooth="yes"/>
      <point x="750" y="540"/>
      <point x="729" y="588" name="at01"/>
      <point x="686" y="620" type="curve" smooth="yes"/>
      <point x="643" y="652" name="sh01"/>
      <point x="582" y="668"/>
      <point x="514" y="668" type="curve" smooth="yes" name="ih02"/>
      <point x="356" y="668" type="line"/>
      <point x="408" y="928" type="line" name="dh02"/>
      <point x="565" y="928" type="line" smooth="yes"/>
      <point x="647" y="928"/>
      <point x="714" y="947"/>
      <point x="767" y="984" type="curve" name="sh02"/>
      <point x="820" y="1023"/>
      <point x="844" y="1069"/>
      <point x="844" y="1124" type="curve" smooth="yes"/>
      <point x="844" y="1171"/>
      <point x="825" y="1207"/>
      <point x="787" y="1232" type="curve" smooth="yes"/>
      <point x="752" y="1255"/>
      <point x="699" y="1270"/>
      <point x="622" y="1270" type="curve" smooth="yes"/>
      <point x="567" y="1270"/>
      <point x="507" y="1263"/>
      <point x="441" y="1249" type="curve" smooth="yes"/>
      <point x="373" y="1234"/>
      <point x="304" y="1215"/>
      <point x="231" y="1188" type="curve"/>
      <point x="285" y="1456" type="line"/>
      <point x="357" y="1479"/>
      <point x="422" y="1493"/>
      <point x="486" y="1504" type="curve" smooth="yes"/>
      <point x="550" y="1515"/>
      <point x="614" y="1520"/>
      <point x="667" y="1520" type="curve" smooth="yes"/>
      <point x="808" y="1520"/>
      <point x="921" y="1485"/>
      <point x="998" y="1424" type="curve" smooth="yes"/>
      <point x="1081" y="1359"/>
      <point x="1120" y="1267"/>
      <point x="1120" y="1164" type="curve" smooth="yes"/>
      <point x="1120" y="1076"/>
      <point x="1091" y="999"/>
      <point x="1026" y="931" type="curve" smooth="yes"/>
      <point x="961" y="863"/>
      <point x="872" y="824"/>
      <point x="764" y="805" type="curve"/>
      <point x="854" y="781"/>
      <point x="921" y="742"/>
      <point x="964" y="687" type="curve" smooth="yes"/>
      <point x="1008" y="631"/>
      <point x="1030" y="563"/>
      <point x="1030" y="470" type="curve" smooth="yes"/>
      <point x="1030" y="323"/>
      <point x="975" y="197"/>
      <point x="867" y="106" type="curve" smooth="yes"/>
      <point x="759" y="15"/>
      <point x="608" y="-29"/>
    </contour>
  </outline>
</glyph>
<glyph name="eight" format="1">
  <advance width="1233"/>
  <unicode hex="0038"/>
  <outline>
    <contour>
      <point x="502" y="-29" type="curve" smooth="yes" name="dv01"/>
      <point x="361" y="-29"/>
      <point x="253" y="7" name="dh01"/>
      <point x="178" y="71" type="curve" smooth="yes"/>
      <point x="101" y="138" name="ih02"/>
      <point x="63" y="231"/>
      <point x="63" y="352" type="curve" smooth="yes" name="ih01"/>
      <point x="63" y="465"/>
      <point x="98" y="562" name="at01"/>
      <point x="162" y="639" type="curve" smooth="yes"/>
      <point x="226" y="716" name="sh02"/>
      <point x="317" y="772"/>
      <point x="434" y="799" type="curve" name="ih04"/>
      <point x="366" y="818"/>
      <point x="314" y="848" name="dh04"/>
      <point x="277" y="897" type="curve" smooth="yes"/>
      <point x="242" y="942"/>
      <point x="223" y="999" name="dv04"/>
      <point x="223" y="1075" type="curve" smooth="yes"/>
      <point x="223" y="1192" name="ih03"/>
      <point x="270" y="1303"/>
      <point x="370" y="1391" type="curve" smooth="yes" name="sv01"/>
      <point x="462" y="1471"/>
      <point x="585" y="1520" name="sh01"/>
      <point x="730" y="1520" type="curve" smooth="yes"/>
      <point x="850" y="1520"/>
      <point x="949" y="1487" name="dv02"/>
      <point x="1025" y="1422" type="curve" smooth="yes"/>
      <point x="1097" y="1359" name="dh03"/>
      <point x="1137" y="1273"/>
      <point x="1137" y="1161" type="curve" smooth="yes" name="dv03"/>
      <point x="1137" y="1064"/>
      <point x="1107" y="982" name="dh02"/>
      <point x="1048" y="913" type="curve" smooth="yes"/>
      <point x="989" y="846"/>
      <point x="910" y="803"/>
      <point x="809" y="786" type="curve" name="sh03"/>
      <point x="881" y="767"/>
      <point x="938" y="730"/>
      <point x="979" y="673" type="curve" smooth="yes"/>
      <point x="1019" y="617"/>
      <point x="1040" y="552"/>
      <point x="1040" y="461" type="curve" smooth="yes"/>
      <point x="1040" y="322"/>
      <point x="992" y="199"/>
      <point x="892" y="107" type="curve" smooth="yes"/>
      <point x="800" y="23"/>
      <point x="670" y="-29"/>
    </contour>
    <contour>
      <point x="653" y="903" type="curve" smooth="yes"/>
      <point x="712" y="903"/>
      <point x="770" y="923"/>
      <point x="813" y="963" type="curve" smooth="yes"/>
      <point x="856" y="1003"/>
      <point x="877" y="1054"/>
      <point x="877" y="1116" type="curve" smooth="yes"/>
      <point x="877" y="1169"/>
      <point x="862" y="1210"/>
      <point x="831" y="1240" type="curve" smooth="yes"/>
      <point x="800" y="1269"/>
      <point x="758" y="1284"/>
      <point x="705" y="1284" type="curve" smooth="yes"/>
      <point x="642" y="1284"/>
      <point x="590" y="1264"/>
      <point x="548" y="1223" type="curve" smooth="yes"/>
      <point x="509" y="1186"/>
      <point x="485" y="1133"/>
      <point x="485" y="1070" type="curve" smooth="yes"/>
      <point x="485" y="1023"/>
      <point x="499" y="981"/>
      <point x="530" y="950" type="curve" smooth="yes"/>
      <point x="562" y="917"/>
      <point x="604" y="903"/>
    </contour>
    <contour>
      <point x="528" y="209" type="curve" smooth="yes"/>
      <point x="600" y="209"/>
      <point x="662" y="234"/>
      <point x="709" y="285" type="curve" smooth="yes"/>
      <point x="754" y="334"/>
      <point x="778" y="402"/>
      <point x="778" y="474" type="curve" smooth="yes"/>
      <point x="778" y="539"/>
      <point x="758" y="585"/>
      <point x="725" y="617" type="curve" smooth="yes"/>
      <point x="693" y="648"/>
      <point x="646" y="668"/>
      <point x="579" y="668" type="curve" smooth="yes"/>
      <point x="504" y="668"/>
      <point x="444" y="643"/>
      <point x="397" y="593" type="curve" smooth="yes"/>
      <point x="350" y="544"/>
      <point x="326" y="476"/>
      <point x="326" y="405" type="curve" smooth="yes"/>
      <point x="326" y="346"/>
      <point x="343" y="296"/>
      <point x="382" y="260" type="curve" smooth="yes"/>
      <point x="419" y="225"/>
      <point x="469" y="209"/>
    </contour>
  </outline>
</glyph>
<glyph name="nine" format="1">
  <advance width="1233"/>
  <unicode hex="0039"/>
  <outline>
    <contour>
      <point x="345" y="-31" type="curve" smooth="yes" name="dv01"/>
      <point x="289" y="-31"/>
      <point x="248" y="-27"/>
      <point x="201" y="-16" type="curve" smooth="yes"/>
      <point x="160" y="-7"/>
      <point x="111" y="6" name="dv02"/>
      <point x="55" y="29" type="curve"/>
      <point x="106" y="297" type="line" name="ih01"/>
      <point x="146" y="269"/>
      <point x="189" y="245" name="dv03"/>
      <point x="237" y="230" type="curve" smooth="yes"/>
      <point x="284" y="215" name="sh01"/>
      <point x="330" y="207"/>
      <point x="379" y="207" type="curve" smooth="yes" name="at01"/>
      <point x="483" y="207"/>
      <point x="570" y="243" name="sh02"/>
      <point x="641" y="316" type="curve" smooth="yes"/>
      <point x="718" y="396"/>
      <point x="764" y="504"/>
      <point x="795" y="633" type="curve"/>
      <point x="753" y="589" name="dv04"/>
      <point x="707" y="556"/>
      <point x="658" y="535" type="curve" smooth="yes" name="ah02"/>
      <point x="607" y="512"/>
      <point x="554" y="502" name="sv01"/>
      <point x="494" y="502" type="curve" smooth="yes"/>
      <point x="371" y="502" name="sh03"/>
      <point x="288" y="548"/>
      <point x="232" y="612" type="curve" smooth="yes"/>
      <point x="163" y="692" name="ah01"/>
      <point x="135" y="799" name="sh04"/>
      <point x="135" y="919" type="curve" smooth="yes"/>
      <point x="135" y="1092"/>
      <point x="194" y="1246"/>
      <point x="286" y="1350" type="curve" smooth="yes"/>
      <point x="386" y="1463"/>
      <point x="525" y="1520"/>
      <point x="685" y="1520" type="curve" smooth="yes"/>
      <point x="830" y="1520"/>
      <point x="943" y="1474"/>
      <point x="1015" y="1394" type="curve" smooth="yes"/>
      <point x="1090" y="1312"/>
      <point x="1128" y="1183"/>
      <point x="1128" y="1008" type="curve" smooth="yes"/>
      <point x="1128" y="876"/>
      <point x="1108" y="733"/>
      <point x="1068" y="596" type="curve" smooth="yes"/>
      <point x="1028" y="459"/>
      <point x="971" y="338"/>
      <point x="899" y="238" type="curve" smooth="yes"/>
      <point x="830" y="142"/>
      <point x="758" y="81"/>
      <point x="663" y="36" type="curve" smooth="yes"/>
      <point x="566" y="-11"/>
      <point x="460" y="-31"/>
    </contour>
    <contour>
      <point x="589" y="739" type="curve" smooth="yes"/>
      <point x="660" y="739"/>
      <point x="719" y="772"/>
      <point x="768" y="839" type="curve" smooth="yes"/>
      <point x="816" y="906"/>
      <point x="842" y="989"/>
      <point x="842" y="1078" type="curve" smooth="yes"/>
      <point x="842" y="1142"/>
      <point x="829" y="1190"/>
      <point x="797" y="1227" type="curve" smooth="yes"/>
      <point x="766" y="1262"/>
      <point x="726" y="1280"/>
      <point x="675" y="1280" type="curve" smooth="yes"/>
      <point x="604" y="1280"/>
      <point x="544" y="1246"/>
      <point x="496" y="1179" type="curve" smooth="yes"/>
      <point x="448" y="1111"/>
      <point x="424" y="1024"/>
      <point x="424" y="935" type="curve" smooth="yes"/>
      <point x="424" y="863"/>
      <point x="438" y="825"/>
      <point x="469" y="790" type="curve" smooth="yes"/>
      <point x="496" y="759"/>
      <point x="532" y="739"/>
    </contour>
  </outline>
</glyph>
<glyph name="l" format="1">
  <advance width="1233"/>
  <unicode hex="006C"/>
  <outline>
    <contour>
      <point x="690" y="-10" type="line" smooth="yes" name="ab01"/>
      <point x="547" y="-10"/>
      <point x="457" y="8"/>
      <point x="400" y="47" type="curve" smooth="yes"/>
      <point x="345" y="83"/>
      <point x="315" y="139" name="sv01"/>
      <point x="315" y="226" type="curve" smooth="yes"/>
      <point x="315" y="249" name="at01"/>
      <point x="317" y="270"/>
      <point x="320" y="290" type="curve"/>
      <point x="323" y="303"/>
      <point x="327" y="340"/>
      <point x="334" y="369" type="curve"/>
      <point x="537" y="1331" type="line" name="sv02"/>
      <point x="231" y="1331" type="line" name="sv03"/>
      <point x="274" y="1556" type="line" name="ab02"/>
      <point x="872" y="1556" type="line"/>
      <point x="623" y="355" type="line"/>
      <point x="615" y="323"/>
      <point x="620" y="329"/>
      <point x="617" y="319" type="curve" smooth="yes"/>
      <point x="614" y="308"/>
      <point x="614" y="301"/>
      <point x="614" y="293" type="curve" smooth="yes"/>
      <point x="614" y="270"/>
      <point x="622" y="249"/>
      <point x="645" y="234" type="curve" smooth="yes"/>
      <point x="666" y="221"/>
      <point x="702" y="215"/>
      <point x="754" y="215" type="curve" smooth="yes"/>
      <point x="1032" y="215" type="line"/>
      <point x="987" y="-10" type="line"/>
    </contour>
  </outline>
</glyph>
<glyph name="currency" format="1">
  <advance width="1233"/>
  <unicode hex="00A4"/>
  <outline>
    <contour>
      <point x="186" y="305" type="line" name="hr00"/>
      <point x="356" y="475" type="line"/>
      <point x="337" y="511" name="sh02"/>
      <point x="332" y="527" name="sh01"/>
      <point x="323" y="559" type="curve" smooth="yes" name="sh03"/>
      <point x="316" y="586"/>
      <point x="311" y="607"/>
      <point x="311" y="642" type="curve" smooth="yes" name="sh04"/>
      <point x="311" y="677" name="sh06"/>
      <point x="316" y="704"/>
      <point x="323" y="729" type="curve" smooth="yes" name="dv04"/>
      <point x="330" y="752"/>
      <point x="338" y="776" name="sh07"/>
      <point x="358" y="807" type="curve" name="sh09"/>
      <point x="186" y="977" type="line"/>
      <point x="317" y="1108" type="line"/>
      <point x="483" y="936" type="line" name="sh10"/>
      <point x="510" y="952" name="sh08"/>
      <point x="541" y="965" name="sh11"/>
      <point x="566" y="972" type="curve" smooth="yes"/>
      <point x="594" y="979"/>
      <point x="623" y="983" name="sh12"/>
      <point x="652" y="983" type="curve" smooth="yes" name="sh13"/>
      <point x="680" y="983"/>
      <point x="706" y="979" name="dv01"/>
      <point x="733" y="972" type="curve" smooth="yes"/>
      <point x="760" y="965" name="sh14"/>
      <point x="788" y="953" name="sh15"/>
      <point x="819" y="938" type="curve" name="dv02"/>
      <point x="991" y="1108" type="line"/>
      <point x="1118" y="979" type="line" name="ah02"/>
      <point x="948" y="809" type="line"/>
      <point x="963" y="782" name="dv03"/>
      <point x="975" y="754"/>
      <point x="982" y="727" type="curve" smooth="yes" name="sh05"/>
      <point x="989" y="698"/>
      <point x="993" y="669"/>
      <point x="993" y="641" type="curve" smooth="yes" name="ah01"/>
      <point x="993" y="613" name="sh16"/>
      <point x="989" y="579"/>
      <point x="982" y="554" type="curve" smooth="yes"/>
      <point x="975" y="533"/>
      <point x="963" y="502"/>
      <point x="946" y="477" type="curve"/>
      <point x="1118" y="307" type="line"/>
      <point x="987" y="176" type="line"/>
      <point x="817" y="348" type="line"/>
      <point x="788" y="329"/>
      <point x="769" y="321"/>
      <point x="741" y="313" type="curve" smooth="yes"/>
      <point x="716" y="306"/>
      <point x="689" y="301"/>
      <point x="656" y="301" type="curve" smooth="yes"/>
      <point x="625" y="301"/>
      <point x="600" y="305"/>
      <point x="572" y="312" type="curve" smooth="yes"/>
      <point x="544" y="319"/>
      <point x="516" y="329"/>
      <point x="485" y="344" type="curve"/>
      <point x="315" y="176" type="line"/>
    </contour>
    <contour>
      <point x="654" y="467" type="curve" smooth="yes"/>
      <point x="703" y="467"/>
      <point x="744" y="484"/>
      <point x="777" y="518" type="curve" smooth="yes"/>
      <point x="810" y="553"/>
      <point x="827" y="594"/>
      <point x="827" y="642" type="curve" smooth="yes"/>
      <point x="827" y="690"/>
      <point x="809" y="735"/>
      <point x="778" y="766" type="curve" smooth="yes"/>
      <point x="746" y="798"/>
      <point x="700" y="815"/>
      <point x="653" y="815" type="curve" smooth="yes"/>
      <point x="606" y="815"/>
      <point x="563" y="799"/>
      <point x="530" y="767" type="curve" smooth="yes"/>
      <point x="499" y="738"/>
      <point x="479" y="694"/>
      <point x="479" y="643" type="curve" smooth="yes"/>
      <point x="479" y="596"/>
      <point x="496" y="553"/>
      <point x="529" y="518" type="curve" smooth="yes"/>
      <point x="560" y="486"/>
      <point x="603" y="467"/>
    </contour>
  </outline>
</glyph>
<glyph name="mu" format="1">
  <advance width="1233"/>
  <unicode hex="00B5"/>
  <outline>
    <contour>
      <point x="246" y="1120" type="line" name="at01"/>
      <point x="535" y="1120" type="line"/>
      <point x="403" y="440" type="line"/>
      <point x="400" y="429"/>
      <point x="397" y="413"/>
      <point x="394" y="388" type="curve" smooth="yes"/>
      <point x="392" y="372" name="sv01"/>
      <point x="391" y="358"/>
      <point x="391" y="346" type="curve" smooth="yes"/>
      <point x="391" y="303" name="at02"/>
      <point x="402" y="271"/>
      <point x="425" y="248" type="curve" smooth="yes"/>
      <point x="448" y="225"/>
      <point x="478" y="213"/>
      <point x="521" y="213" type="curve" smooth="yes"/>
      <point x="575" y="213" name="dv02"/>
      <point x="619" y="232"/>
      <point x="653" y="269" type="curve" smooth="yes" name="iv01"/>
      <point x="688" y="306"/>
      <point x="712" y="363"/>
      <point x="727" y="440" type="curve" smooth="yes" name="dv01"/>
      <point x="858" y="1120" type="line"/>
      <point x="1147" y="1120" type="line" name="iv02"/>
      <point x="997" y="344" type="line"/>
      <point x="992" y="298" name="sv02"/>
      <point x="990" y="295"/>
      <point x="990" y="293" type="curve" name="iv03"/>
      <point x="987" y="280" name="ab01"/>
      <point x="987" y="273"/>
      <point x="987" y="264" type="curve" smooth="yes"/>
      <point x="987" y="249"/>
      <point x="991" y="236"/>
      <point x="998" y="227" type="curve" smooth="yes"/>
      <point x="1005" y="218"/>
      <point x="1015" y="213"/>
      <point x="1028" y="213" type="curve" smooth="yes"/>
      <point x="1036" y="213"/>
      <point x="1045" y="215"/>
      <point x="1055" y="219" type="curve" smooth="yes"/>
      <point x="1062" y="222"/>
      <point x="1075" y="229"/>
      <point x="1090" y="238" type="curve"/>
      <point x="1047" y="16" type="line"/>
      <point x="1010" y="-3"/>
      <point x="988" y="-11"/>
      <point x="961" y="-18" type="curve" smooth="yes"/>
      <point x="934" y="-25"/>
      <point x="910" y="-29"/>
      <point x="883" y="-29" type="curve" smooth="yes"/>
      <point x="832" y="-29"/>
      <point x="799" y="-15"/>
      <point x="775" y="9" type="curve" smooth="yes"/>
      <point x="750" y="34"/>
      <point x="733" y="74"/>
      <point x="725" y="129" type="curve"/>
      <point x="690" y="76"/>
      <point x="652" y="37"/>
      <point x="611" y="11" type="curve" smooth="yes"/>
      <point x="572" y="-14"/>
      <point x="531" y="-29"/>
      <point x="479" y="-29" type="curve" smooth="yes"/>
      <point x="440" y="-29"/>
      <point x="408" y="-21"/>
      <point x="383" y="-5" type="curve" smooth="yes"/>
      <point x="358" y="11"/>
      <point x="340" y="35"/>
      <point x="330" y="66" type="curve"/>
      <point x="233" y="-428" type="line"/>
      <point x="-55" y="-428" type="line"/>
    </contour>
  </outline>
</glyph>
<glyph name="Ugrave" format="1">
  <advance width="1233"/>
  <unicode hex="00D9"/>
  <outline>
    <contour>
      <point x="496" y="1852" type="line" name="hr00"/>
      <point x="760" y="1852" type="line" name="dv04"/>
      <point x="903" y="1588" type="line"/>
      <point x="725" y="1588" type="line" name="dv03"/>
    </contour>
    <contour>
      <point x="497" y="-29" type="curve" smooth="yes" name="dv01"/>
      <point x="356" y="-29"/>
      <point x="243" y="3" name="dh01"/>
      <point x="163" y="70" type="curve" smooth="yes" name="sh01"/>
      <point x="80" y="138"/>
      <point x="45" y="233" name="at01"/>
      <point x="45" y="354" type="curve" smooth="yes"/>
      <point x="45" y="382" name="sh02"/>
      <point x="47" y="408" name="sh03"/>
      <point x="51" y="444" type="curve" smooth="yes" name="dh02"/>
      <point x="56" y="495"/>
      <point x="58" y="504" name="dv02"/>
      <point x="68" y="551" type="curve"/>
      <point x="252" y="1493" type="line"/>
      <point x="547" y="1493" type="line" name="at02"/>
      <point x="348" y="477" type="line"/>
      <point x="348" y="475"/>
      <point x="348" y="473"/>
      <point x="347" y="471" type="curve"/>
      <point x="342" y="440"/>
      <point x="340" y="419"/>
      <point x="340" y="400" type="curve" smooth="yes"/>
      <point x="340" y="347"/>
      <point x="355" y="306"/>
      <point x="386" y="276" type="curve" smooth="yes"/>
      <point x="417" y="246"/>
      <point x="461" y="231"/>
      <point x="518" y="231" type="curve" smooth="yes"/>
      <point x="587" y="231"/>
      <point x="646" y="251"/>
      <point x="689" y="292" type="curve" smooth="yes"/>
      <point x="732" y="333"/>
      <point x="761" y="394"/>
      <point x="778" y="477" type="curve"/>
      <point x="977" y="1493" type="line"/>
      <point x="1272" y="1493" type="line"/>
      <point x="1087" y="551" type="line"/>
      <point x="1064" y="438"/>
      <point x="1044" y="354"/>
      <point x="1012" y="279" type="curve" smooth="yes"/>
      <point x="984" y="214"/>
      <point x="951" y="166"/>
      <point x="908" y="123" type="curve" smooth="yes"/>
      <point x="857" y="74"/>
      <point x="798" y="36"/>
      <point x="729" y="10" type="curve" smooth="yes"/>
      <point x="660" y="-17"/>
      <point x="585" y="-29"/>
    </contour>
  </outline>
</glyph>
<glyph name="germandbls" format="1">
  <advance width="1233"/>
  <unicode hex="00DF"/>
  <outline>
    <contour>
      <point x="666" y="-29" type="curve" smooth="yes" name="dv01"/>
      <point x="613" y="-29"/>
      <point x="576" y="-24"/>
      <point x="535" y="-16" type="curve" smooth="yes" name="iv01"/>
      <point x="483" y="-5"/>
      <point x="450" y="4" name="dv02"/>
      <point x="406" y="20" type="curve"/>
      <point x="455" y="270" type="line" name="ah02"/>
      <point x="494" y="249"/>
      <point x="531" y="234"/>
      <point x="567" y="223" type="curve" smooth="yes"/>
      <point x="601" y="212"/>
      <point x="635" y="207" name="sh01"/>
      <point x="669" y="207" type="curve" smooth="yes"/>
      <point x="725" y="207"/>
      <point x="773" y="220"/>
      <point x="808" y="247" type="curve" smooth="yes"/>
      <point x="843" y="274" name="sv01"/>
      <point x="860" y="310"/>
      <point x="860" y="347" type="curve" smooth="yes"/>
      <point x="860" y="402" name="ab01"/>
      <point x="824" y="456"/>
      <point x="749" y="531" type="curve" smooth="yes"/>
      <point x="743" y="537" type="line"/>
      <point x="674" y="608" type="line" smooth="yes" name="at01"/>
      <point x="644" y="639"/>
      <point x="622" y="671" name="sh03"/>
      <point x="609" y="705" type="curve" smooth="yes" name="sh04"/>
      <point x="595" y="739"/>
      <point x="588" y="776"/>
      <point x="588" y="817" type="curve" smooth="yes" name="sh05"/>
      <point x="588" y="905"/>
      <point x="619" y="981"/>
      <point x="680" y="1044" type="curve" smooth="yes"/>
      <point x="741" y="1106" name="sh02"/>
      <point x="827" y="1149"/>
      <point x="940" y="1174" type="curve"/>
      <point x="940" y="1190" type="line" smooth="yes" name="ah01"/>
      <point x="940" y="1229" name="sh06"/>
      <point x="927" y="1265"/>
      <point x="895" y="1290" type="curve" smooth="yes"/>
      <point x="864" y="1313"/>
      <point x="823" y="1325"/>
      <point x="770" y="1325" type="curve" smooth="yes"/>
      <point x="707" y="1325"/>
      <point x="656" y="1308"/>
      <point x="618" y="1274" type="curve" smooth="yes"/>
      <point x="580" y="1240"/>
      <point x="554" y="1189"/>
      <point x="541" y="1122" type="curve" smooth="yes"/>
      <point x="322" y="0" type="line"/>
      <point x="29" y="0" type="line"/>
      <point x="248" y="1126" type="line" smooth="yes"/>
      <point x="276" y="1271"/>
      <point x="333" y="1376"/>
      <point x="421" y="1449" type="curve" smooth="yes"/>
      <point x="508" y="1522"/>
      <point x="624" y="1559"/>
      <point x="767" y="1559" type="curve" smooth="yes"/>
      <point x="896" y="1559"/>
      <point x="995" y="1531"/>
      <point x="1060" y="1472" type="curve" smooth="yes"/>
      <point x="1125" y="1413"/>
      <point x="1157" y="1324"/>
      <point x="1157" y="1215" type="curve" smooth="yes"/>
      <point x="1157" y="1176"/>
      <point x="1153" y="1133"/>
      <point x="1146" y="1065" type="curve" smooth="yes"/>
      <point x="1145" y="1059" type="line"/>
      <point x="1048" y="1054"/>
      <point x="974" y="1032"/>
      <point x="926" y="1001" type="curve" smooth="yes"/>
      <point x="878" y="970"/>
      <point x="848" y="924"/>
      <point x="848" y="875" type="curve" smooth="yes"/>
      <point x="848" y="831"/>
      <point x="873" y="786"/>
      <point x="944" y="715" type="curve" smooth="yes"/>
      <point x="1026" y="633" type="line" smooth="yes"/>
      <point x="1065" y="593"/>
      <point x="1095" y="553"/>
      <point x="1114" y="512" type="curve" smooth="yes"/>
      <point x="1133" y="473"/>
      <point x="1143" y="431"/>
      <point x="1143" y="374" type="curve" smooth="yes"/>
      <point x="1143" y="259"/>
      <point x="1100" y="157"/>
      <point x="1015" y="82" type="curve" smooth="yes"/>
      <point x="930" y="8"/>
      <point x="813" y="-29"/>
    </contour>
  </outline>
</glyph>
<glyph name="ugrave" format="1">
  <advance width="1233"/>
  <unicode hex="00F9"/>
  <outline>
    <contour>
      <point x="381" y="1648" type="line" name="ih01"/>
      <point x="665" y="1648" type="line"/>
      <point x="874" y="1272" type="line" name="iv01"/>
      <point x="676" y="1272" type="line"/>
    </contour>
    <contour>
      <point x="370" y="-29" type="curve" smooth="yes" name="dv01"/>
      <point x="289" y="-29"/>
      <point x="222" y="-5" name="dh01"/>
      <point x="175" y="42" type="curve" smooth="yes" name="sh01"/>
      <point x="129" y="89"/>
      <point x="106" y="156" name="at01"/>
      <point x="106" y="244" type="curve" smooth="yes"/>
      <point x="106" y="263"/>
      <point x="107" y="284"/>
      <point x="110" y="308" type="curve" name="dh02"/>
      <point x="113" y="324"/>
      <point x="116" y="360" name="dv02"/>
      <point x="123" y="391" type="curve"/>
      <point x="266" y="1120" type="line"/>
      <point x="557" y="1120" type="line" name="at02"/>
      <point x="426" y="436" type="line" smooth="yes"/>
      <point x="423" y="421" name="ab01"/>
      <point x="422" y="404"/>
      <point x="419" y="383" type="curve" smooth="yes" name="iv02"/>
      <point x="416" y="362"/>
      <point x="416" y="351"/>
      <point x="416" y="336" type="curve" smooth="yes"/>
      <point x="416" y="289"/>
      <point x="426" y="264"/>
      <point x="445" y="243" type="curve" smooth="yes"/>
      <point x="462" y="224"/>
      <point x="486" y="211"/>
      <point x="529" y="211" type="curve" smooth="yes"/>
      <point x="588" y="211"/>
      <point x="632" y="235"/>
      <point x="668" y="282" type="curve" smooth="yes"/>
      <point x="707" y="331"/>
      <point x="735" y="400"/>
      <point x="752" y="489" type="curve" smooth="yes"/>
      <point x="874" y="1120" type="line"/>
      <point x="1165" y="1120" type="line"/>
      <point x="948" y="0" type="line"/>
      <point x="684" y="0" type="line"/>
      <point x="688" y="166" type="line"/>
      <point x="656" y="98"/>
      <point x="603" y="51"/>
      <point x="560" y="24" type="curve" smooth="yes"/>
      <point x="497" y="-15"/>
      <point x="433" y="-29"/>
    </contour>
  </outline>
</glyph>
<glyph name="Abreve" format="1">
  <advance width="1233"/>
  <unicode hex="0102"/>
  <outline>
    <contour>
      <point x="796" y="1588" type="curve" smooth="yes" name="dv01"/>
      <point x="607" y="1588"/>
      <point x="508" y="1680"/>
      <point x="508" y="1848" type="curve" smooth="yes" name="sv01"/>
      <point x="508" y="1852" type="line" name="dv02"/>
      <point x="651" y="1852" type="line" name="sv02"/>
      <point x="662" y="1780"/>
      <point x="711" y="1737"/>
      <point x="816" y="1737" type="curve" smooth="yes" name="at01"/>
      <point x="920" y="1737"/>
      <point x="989" y="1777" name="ab01"/>
      <point x="1022" y="1852" type="curve"/>
      <point x="1176" y="1852" type="line" name="dv03"/>
      <point x="1123" y="1676"/>
      <point x="977" y="1588" name="ab02"/>
    </contour>
    <contour>
      <point x="582" y="1493" type="line"/>
      <point x="942" y="1493" type="line" name="dv04"/>
      <point x="1055" y="0" type="line"/>
      <point x="762" y="0" type="line"/>
      <point x="748" y="369" type="line"/>
      <point x="348" y="369" type="line"/>
      <point x="186" y="0" type="line"/>
      <point x="-113" y="0" type="line"/>
    </contour>
    <contour>
      <point x="737" y="612" type="line"/>
      <point x="717" y="1219" type="line"/>
      <point x="453" y="612" type="line"/>
    </contour>
  </outline>
</glyph>
<glyph name="uni0123" format="1">
  <advance width="1233"/>
  <unicode hex="0123"/>
  <outline>
    <contour>
      <point x="761" y="1579" type="line" name="dv02"/>
      <point x="955" y="1579" type="line"/>
      <point x="807" y="1273" type="line" name="dv01"/>
      <point x="525" y="1273" type="line" name="ih01"/>
    </contour>
    <contour>
      <point x="389" y="-424" type="curve" smooth="yes" name="ab01"/>
      <point x="252" y="-424"/>
      <point x="135" y="-404" name="ih02"/>
      <point x="18" y="-365" type="curve" name="sv01"/>
      <point x="72" y="-100" type="line"/>
      <point x="172" y="-160" name="ih03"/>
      <point x="284" y="-190" name="dv03"/>
      <point x="395" y="-190" type="curve" smooth="yes" name="dh01"/>
      <point x="571" y="-190"/>
      <point x="656" y="-113" name="dv06"/>
      <point x="688" y="51" type="curve" smooth="yes" name="iv01"/>
      <point x="715" y="184" type="line" name="at01"/>
      <point x="640" y="69"/>
      <point x="536" y="16"/>
      <point x="409" y="16" type="curve" smooth="yes"/>
      <point x="201" y="16" name="dv04"/>
      <point x="68" y="161" name="sh01"/>
      <point x="68" y="412" type="curve" smooth="yes" name="dv05"/>
      <point x="68" y="584" name="dh02"/>
      <point x="132" y="796"/>
      <point x="225" y="932" type="curve" smooth="yes"/>
      <point x="321" y="1071"/>
      <point x="459" y="1151"/>
      <point x="603" y="1151" type="curve" smooth="yes"/>
      <point x="742" y="1151"/>
      <point x="834" y="1075"/>
      <point x="862" y="938" type="curve"/>
      <point x="926" y="1120" type="line"/>
      <point x="1190" y="1120" type="line"/>
      <point x="987" y="84" type="line" smooth="yes"/>
      <point x="915" y="-285"/>
      <point x="749" y="-424"/>
    </contour>
    <contour>
      <point x="516" y="246" type="curve" smooth="yes"/>
      <point x="675" y="246"/>
      <point x="803" y="457"/>
      <point x="803" y="684" type="curve" smooth="yes"/>
      <point x="803" y="837"/>
      <point x="745" y="909"/>
      <point x="653" y="909" type="curve" smooth="yes"/>
      <point x="496" y="909"/>
      <point x="367" y="702"/>
      <point x="367" y="471" type="curve" smooth="yes"/>
      <point x="367" y="318"/>
      <point x="423" y="246"/>
    </contour>
  </outline>
</glyph>
<glyph name="tcaron" format="1">
  <advance width="1233"/>
  <unicode hex="0165"/>
  <outline>
    <contour>
      <point x="1073" y="1661" type="line" name="dv02"/>
      <point x="1394" y="1661" type="line"/>
      <point x="1137" y="1285" type="line" name="dv01"/>
      <point x="940" y="1285" type="line"/>
    </contour>
    <contour>
      <point x="707" y="-5" type="line" smooth="yes" name="ab01"/>
      <point x="566" y="-5"/>
      <point x="475" y="13"/>
      <point x="418" y="52" type="curve"/>
      <point x="357" y="92"/>
      <point x="332" y="153" name="sv01"/>
      <point x="332" y="229" type="curve" smooth="yes"/>
      <point x="332" y="252" name="at01"/>
      <point x="334" y="267"/>
      <point x="337" y="290" type="curve" smooth="yes"/>
      <point x="340" y="306"/>
      <point x="343" y="342" name="at02"/>
      <point x="350" y="374" type="curve"/>
      <point x="451" y="895" type="line" name="sv02"/>
      <point x="164" y="895" type="line" name="sv03"/>
      <point x="207" y="1120" type="line"/>
      <point x="494" y="1120" type="line"/>
      <point x="555" y="1438" type="line"/>
      <point x="848" y="1438" type="line"/>
      <point x="786" y="1120" type="line" name="sv04"/>
      <point x="1169" y="1120" type="line"/>
      <point x="1126" y="895" type="line"/>
      <point x="743" y="895" type="line"/>
      <point x="639" y="360" type="line"/>
      <point x="633" y="325" type="line"/>
      <point x="632" y="314"/>
      <point x="631" y="308"/>
      <point x="631" y="300" type="curve" smooth="yes"/>
      <point x="631" y="271"/>
      <point x="641" y="251"/>
      <point x="661" y="239" type="curve"/>
      <point x="680" y="226"/>
      <point x="717" y="220"/>
      <point x="770" y="220" type="curve" smooth="yes"/>
      <point x="995" y="220" type="line"/>
      <point x="952" y="-5" type="line"/>
    </contour>
  </outline>
</glyph>
<glyph name="uhorn" format="1">
  <advance width="1233"/>
  <unicode hex="01B0"/>
  <outline>
    <contour>
      <point x="1336" y="1167" type="line" name="hr00"/>
      <point x="1336" y="1094"/>
      <point x="1332" y="1033" name="sv01"/>
      <point x="1321" y="977" type="curve" smooth="yes"/>
      <point x="1290" y="825" name="ab01"/>
      <point x="1212" y="739"/>
      <point x="1097" y="739" type="curve" smooth="yes" name="sh01"/>
      <point x="1074" y="739" name="sv03"/>
      <point x="1052" y="742" name="dh01"/>
      <point x="1032" y="749" type="curve"/>
      <point x="887" y="0" type="line" name="at01"/>
      <point x="623" y="0" type="line"/>
      <point x="627" y="166" type="line"/>
      <point x="567" y="45" name="dh02"/>
      <point x="452" y="-29" name="sv02"/>
      <point x="307" y="-29" type="curve" smooth="yes"/>
      <point x="143" y="-29" name="at02"/>
      <point x="45" y="67"/>
      <point x="45" y="244" type="curve" smooth="yes"/>
      <point x="45" y="283"/>
      <point x="50" y="327"/>
      <point x="62" y="391" type="curve" smooth="yes"/>
      <point x="205" y="1120" type="line" name="sv04"/>
      <point x="496" y="1120" type="line"/>
      <point x="365" y="436" type="line" smooth="yes"/>
      <point x="358" y="400"/>
      <point x="355" y="362"/>
      <point x="355" y="338" type="curve" smooth="yes"/>
      <point x="355" y="251"/>
      <point x="395" y="211"/>
      <point x="467" y="211" type="curve" smooth="yes"/>
      <point x="574" y="211"/>
      <point x="654" y="298"/>
      <point x="691" y="489" type="curve" smooth="yes"/>
      <point x="813" y="1120" type="line"/>
      <point x="1104" y="1120" type="line"/>
      <point x="1062" y="903" type="line"/>
      <point x="1071" y="903" type="line" smooth="yes"/>
      <point x="1118" y="903"/>
      <point x="1164" y="935"/>
      <point x="1180" y="1011" type="curve" smooth="yes"/>
      <point x="1185" y="1035"/>
      <point x="1188" y="1066"/>
      <point x="1188" y="1090" type="curve" smooth="yes"/>
      <point x="1188" y="1113"/>
      <point x="1185" y="1138"/>
      <point x="1180" y="1167" type="curve"/>
    </contour>
  </outline>
</glyph>
<glyph name="uni02BD" format="1">
  <advance width="1233"/>
  <unicode hex="02BD"/>
  <outline>
    <contour>
      <point x="704" y="1218" type="line" name="dv01"/>
      <point x="550" y="1219" name="dh01"/>
      <point x="473" y="1281"/>
      <point x="473" y="1406" type="curve" smooth="yes"/>
      <point x="473" y="1430" name="dv02"/>
      <point x="476" y="1455"/>
      <point x="481" y="1483" type="curve" smooth="yes"/>
      <point x="529" y="1729" type="line" name="dh02"/>
      <point x="803" y="1729" type="line"/>
      <point x="755" y="1483" type="line"/>
      <point x="634" y="1483" type="line"/>
      <point x="631" y="1470"/>
      <point x="630" y="1458"/>
      <point x="630" y="1447" type="curve" smooth="yes"/>
      <point x="630" y="1390"/>
      <point x="664" y="1361"/>
      <point x="732" y="1361" type="curve"/>
    </contour>
  </outline>
</glyph>
<glyph name="uni031A" format="1">
  <advance width="0"/>
  <unicode hex="031A"/>
  <outline>
    <contour>
      <point x="-511" y="1713" type="line" name="dv01"/>
      <point x="-877" y="1713" type="line"/>
      <point x="-840" y="1902" type="line"/>
      <point x="-285" y="1902" type="line" name="dv02"/>
      <point x="-393" y="1347" type="line" name="av01"/>
      <point x="-582" y="1347" type="line"/>
    </contour>
  </outline>
</glyph>
<glyph name="uni031B" format="1">
  <advance width="0"/>
  <unicode hex="031B"/>
  <outline>
    <contour>
      <point x="-636" y="739" type="curve" smooth="yes" name="dv01"/>
      <point x="-708" y="739"/>
      <point x="-769" y="774" name="iv01"/>
      <point x="-837" y="850" type="curve"/>
      <point x="-810" y="991" type="line" name="dv02"/>
      <point x="-770" y="958"/>
      <point x="-740" y="935"/>
      <point x="-719" y="922" type="curve" smooth="yes" name="sv01"/>
      <point x="-698" y="909"/>
      <point x="-679" y="903"/>
      <point x="-661" y="903" type="curve" smooth="yes"/>
      <point x="-609" y="903"/>
      <point x="-564" y="946"/>
      <point x="-552" y="1011" type="curve" smooth="yes"/>
      <point x="-547" y="1038"/>
      <point x="-544" y="1062"/>
      <point x="-544" y="1089" type="curve" smooth="yes"/>
      <point x="-544" y="1112"/>
      <point x="-547" y="1138"/>
      <point x="-552" y="1167" type="curve"/>
      <point x="-396" y="1167" type="line"/>
      <point x="-396" y="1094"/>
      <point x="-400" y="1033"/>
      <point x="-411" y="977" type="curve" smooth="yes"/>
      <point x="-442" y="824"/>
      <point x="-520" y="739"/>
    </contour>
  </outline>
</glyph>
<glyph name="uni0325" format="1">
  <advance width="0"/>
  <unicode hex="0325"/>
  <outline>
    <contour>
      <point x="-859" y="-502" type="curve" smooth="yes" name="ab01"/>
      <point x="-983" y="-502" name="sh01"/>
      <point x="-1040" y="-412" name="dv02"/>
      <point x="-1040" y="-328" type="curve" smooth="yes" name="sh02"/>
      <point x="-1040" y="-169"/>
      <point x="-897" y="-63" name="sv01"/>
      <point x="-774" y="-63" type="curve" smooth="yes" name="ah02"/>
      <point x="-650" y="-63" name="dv01"/>
      <point x="-592" y="-153" name="sh03"/>
      <point x="-592" y="-236" type="curve" smooth="yes"/>
      <point x="-592" y="-396" name="ah01"/>
      <point x="-736" y="-502"/>
    </contour>
    <contour>
      <point x="-834" y="-370" type="curve" smooth="yes"/>
      <point x="-786" y="-370"/>
      <point x="-727" y="-323"/>
      <point x="-727" y="-276" type="curve" smooth="yes"/>
      <point x="-727" y="-222"/>
      <point x="-751" y="-195"/>
      <point x="-800" y="-195" type="curve" smooth="yes"/>
      <point x="-849" y="-195"/>
      <point x="-906" y="-241"/>
      <point x="-906" y="-290" type="curve" smooth="yes"/>
      <point x="-906" y="-343"/>
      <point x="-882" y="-370"/>
    </contour>
  </outline>
</glyph>
<glyph name="uni0327" format="1">
  <advance width="0"/>
  <unicode hex="0327"/>
  <outline>
    <contour>
      <point x="-880" y="-401" type="curve" smooth="yes" name="dv01"/>
      <point x="-949" y="-401"/>
      <point x="-1017" y="-392"/>
      <point x="-1082" y="-375" type="curve" name="dv02"/>
      <point x="-1054" y="-219" type="line" name="dh01"/>
      <point x="-996" y="-242" name="sv01"/>
      <point x="-943" y="-254"/>
      <point x="-894" y="-254" type="curve" smooth="yes" name="dh02"/>
      <point x="-802" y="-254"/>
      <point x="-753" y="-218"/>
      <point x="-753" y="-150" type="curve" smooth="yes"/>
      <point x="-753" y="-115"/>
      <point x="-769" y="-73"/>
      <point x="-810" y="0" type="curve"/>
      <point x="-669" y="0" type="line"/>
      <point x="-621" y="-64"/>
      <point x="-597" y="-125"/>
      <point x="-597" y="-184" type="curve" smooth="yes"/>
      <point x="-597" y="-316"/>
      <point x="-707" y="-401"/>
    </contour>
  </outline>
</glyph>
<glyph name="uni032B" format="1">
  <advance width="0"/>
  <unicode hex="032B"/>
  <outline>
    <contour>
      <point x="-813" y="-489" type="curve" smooth="yes" name="dv01"/>
      <point x="-940" y="-489" name="dh01"/>
      <point x="-1003" y="-420" name="sh01"/>
      <point x="-1003" y="-283" type="curve" smooth="yes" name="sh02"/>
      <point x="-1003" y="-255" name="dh02"/>
      <point x="-1002" y="-225" name="dv02"/>
      <point x="-995" y="-192" type="curve"/>
      <point x="-852" y="-192" type="line" name="sv01"/>
      <point x="-852" y="-200" name="sh04"/>
      <point x="-853" y="-208" name="sh03"/>
      <point x="-853" y="-216" type="curve" smooth="yes" name="sv02"/>
      <point x="-853" y="-291"/>
      <point x="-830" y="-331" name="sv03"/>
      <point x="-784" y="-336" type="curve"/>
      <point x="-731" y="-336"/>
      <point x="-691" y="-293" name="sv04"/>
      <point x="-664" y="-208" type="curve"/>
      <point x="-661" y="-202"/>
      <point x="-660" y="-197"/>
      <point x="-659" y="-192" type="curve"/>
      <point x="-516" y="-192" type="line"/>
      <point x="-516" y="-200"/>
      <point x="-517" y="-208"/>
      <point x="-517" y="-216" type="curve" smooth="yes"/>
      <point x="-517" y="-291"/>
      <point x="-494" y="-331"/>
      <point x="-448" y="-336" type="curve"/>
      <point x="-401" y="-336"/>
      <point x="-363" y="-300"/>
      <point x="-335" y="-227" type="curve" smooth="yes"/>
      <point x="-330" y="-216"/>
      <point x="-326" y="-204"/>
      <point x="-323" y="-192" type="curve"/>
      <point x="-180" y="-192" type="line"/>
      <point x="-211" y="-330"/>
      <point x="-271" y="-421"/>
      <point x="-360" y="-464" type="curve" smooth="yes"/>
      <point x="-394" y="-481"/>
      <point x="-433" y="-489"/>
      <point x="-477" y="-489" type="curve" smooth="yes"/>
      <point x="-548" y="-489"/>
      <point x="-600" y="-466"/>
      <point x="-632" y="-419" type="curve"/>
      <point x="-681" y="-466"/>
      <point x="-742" y="-489"/>
    </contour>
  </outline>
</glyph>
<glyph name="uni033A" format="1">
  <advance width="0"/>
  <unicode hex="033A"/>
  <outline>
    <contour>
      <point x="-895" y="-146" type="line" name="sv02"/>
      <point x="-707" y="-146" type="line"/>
      <point x="-743" y="-332" type="line"/>
      <point x="-489" y="-332" type="line" name="dv02"/>
      <point x="-453" y="-146" type="line"/>
      <point x="-265" y="-146" type="line" name="sv01"/>
      <point x="-338" y="-520" type="line" name="dv01"/>
      <point x="-968" y="-520" type="line"/>
    </contour>
  </outline>
</glyph>
<glyph name="uni033C" format="1">
  <advance width="0"/>
  <unicode hex="033C"/>
  <outline>
    <contour>
      <point x="-1053" y="-489" type="line" name="sv01"/>
      <point x="-1022" y="-351"/>
      <point x="-962" y="-260" name="dv01"/>
      <point x="-873" y="-217" type="curve" smooth="yes"/>
      <point x="-839" y="-200" name="sv02"/>
      <point x="-800" y="-192" name="dh02"/>
      <point x="-756" y="-192" type="curve" smooth="yes" name="sh01"/>
      <point x="-685" y="-192" name="sh03"/>
      <point x="-633" y="-215" name="sh02"/>
      <point x="-601" y="-262" type="curve" name="sv03"/>
      <point x="-552" y="-215"/>
      <point x="-491" y="-192"/>
      <point x="-420" y="-192" type="curve" smooth="yes" name="sh04"/>
      <point x="-293" y="-192" name="dh01"/>
      <point x="-230" y="-261" name="sv04"/>
      <point x="-230" y="-398" type="curve" smooth="yes"/>
      <point x="-230" y="-426" name="sv05"/>
      <point x="-231" y="-456"/>
      <point x="-238" y="-489" type="curve"/>
      <point x="-381" y="-489" type="line"/>
      <point x="-381" y="-481"/>
      <point x="-380" y="-473"/>
      <point x="-380" y="-465" type="curve" smooth="yes"/>
      <point x="-380" y="-390"/>
      <point x="-403" y="-350"/>
      <point x="-449" y="-345" type="curve"/>
      <point x="-502" y="-345"/>
      <point x="-542" y="-388"/>
      <point x="-569" y="-473" type="curve"/>
      <point x="-572" y="-479"/>
      <point x="-573" y="-484"/>
      <point x="-574" y="-489" type="curve"/>
      <point x="-717" y="-489" type="line"/>
      <point x="-717" y="-481"/>
      <point x="-716" y="-473"/>
      <point x="-716" y="-465" type="curve" smooth="yes"/>
      <point x="-716" y="-390"/>
      <point x="-739" y="-350"/>
      <point x="-785" y="-345" type="curve"/>
      <point x="-832" y="-345"/>
      <point x="-870" y="-381"/>
      <point x="-898" y="-454" type="curve" smooth="yes"/>
      <point x="-903" y="-465"/>
      <point x="-907" y="-477"/>
      <point x="-910" y="-489" type="curve"/>
    </contour>
  </outline>
</glyph>
<glyph name="delta" format="1">
  <advance width="1233"/>
  <unicode hex="03B4"/>
  <outline>
    <contour>
      <point x="491" y="-29" type="curve" smooth="yes" name="dv01"/>
      <point x="225" y="-29" name="dh01"/>
      <point x="70" y="133"/>
      <point x="70" y="397" type="curve" smooth="yes"/>
      <point x="70" y="449" name="ih02"/>
      <point x="76" y="502" name="ih01"/>
      <point x="87" y="559" type="curve" smooth="yes"/>
      <point x="124" y="748" name="at01"/>
      <point x="202" y="880" name="at02"/>
      <point x="311" y="988" type="curve" smooth="yes" name="at03"/>
      <point x="350" y="1027"/>
      <point x="395" y="1065"/>
      <point x="414" y="1065" type="curve"/>
      <point x="339" y="1100" name="sv02"/>
      <point x="306" y="1162"/>
      <point x="306" y="1233" type="curve" smooth="yes"/>
      <point x="306" y="1323" name="sh01"/>
      <point x="362" y="1427" name="at04"/>
      <point x="478" y="1492" type="curve" smooth="yes" name="dh04"/>
      <point x="566" y="1541"/>
      <point x="690" y="1569"/>
      <point x="847" y="1569" type="curve" smooth="yes" name="dv02"/>
      <point x="907" y="1569"/>
      <point x="967" y="1565" name="dh03"/>
      <point x="1023" y="1557" type="curve" smooth="yes" name="sv01"/>
      <point x="1033" y="1555" type="line" smooth="yes"/>
      <point x="1053" y="1552" name="dh02"/>
      <point x="1101" y="1541"/>
      <point x="1178" y="1521" type="curve"/>
      <point x="1136" y="1306" type="line" name="sh02"/>
      <point x="1115" y="1314"/>
      <point x="1123" y="1309"/>
      <point x="1112" y="1314" type="curve"/>
      <point x="992" y="1351"/>
      <point x="944" y="1367"/>
      <point x="833" y="1367" type="curve" smooth="yes"/>
      <point x="752" y="1367"/>
      <point x="700" y="1360"/>
      <point x="649" y="1333" type="curve"/>
      <point x="625" y="1318" type="line" smooth="yes"/>
      <point x="591" y="1297"/>
      <point x="574" y="1267"/>
      <point x="574" y="1230" type="curve" smooth="yes"/>
      <point x="574" y="1154"/>
      <point x="653" y="1150"/>
      <point x="719" y="1147" type="curve" smooth="yes"/>
      <point x="1010" y="1134"/>
      <point x="1141" y="979"/>
      <point x="1141" y="724" type="curve" smooth="yes"/>
      <point x="1141" y="668"/>
      <point x="1135" y="617"/>
      <point x="1124" y="558" type="curve" smooth="yes"/>
      <point x="1052" y="194"/>
      <point x="805" y="-29"/>
    </contour>
    <contour>
      <point x="538" y="209" type="curve" smooth="yes"/>
      <point x="678" y="209"/>
      <point x="788" y="338"/>
      <point x="831" y="559" type="curve" smooth="yes"/>
      <point x="840" y="606"/>
      <point x="845" y="648"/>
      <point x="845" y="688" type="curve" smooth="yes"/>
      <point x="845" y="829"/>
      <point x="785" y="909"/>
      <point x="673" y="909" type="curve" smooth="yes"/>
      <point x="533" y="909"/>
      <point x="423" y="778"/>
      <point x="380" y="559" type="curve" smooth="yes"/>
      <point x="371" y="512"/>
      <point x="366" y="470"/>
      <point x="366" y="430" type="curve" smooth="yes"/>
      <point x="366" y="289"/>
      <point x="426" y="209"/>
    </contour>
  </outline>
</glyph>
<glyph name="theta" format="1">
  <advance width="1233"/>
  <unicode hex="03B8"/>
  <outline>
    <contour>
      <point x="502" y="-24" type="curve" smooth="yes" name="ab01"/>
      <point x="249" y="-24" name="sh01"/>
      <point x="108" y="174"/>
      <point x="108" y="490" type="curve" smooth="yes" name="dv02"/>
      <point x="108" y="570" name="sh02"/>
      <point x="117" y="673"/>
      <point x="136" y="776" type="curve" smooth="yes" name="sh03"/>
      <point x="224" y="1251"/>
      <point x="492" y="1575" name="sh04"/>
      <point x="813" y="1575" type="curve" smooth="yes" name="ah02"/>
      <point x="1062" y="1575" name="dv01"/>
      <point x="1204" y="1378"/>
      <point x="1204" y="1059" type="curve" smooth="yes" name="sv01"/>
      <point x="1204" y="974" name="dv03"/>
      <point x="1195" y="875" name="sh06"/>
      <point x="1176" y="776" type="curve" name="sh05"/>
      <point x="1136" y="557"/>
      <point x="1044" y="338" name="ah01"/>
      <point x="921" y="191" type="curve" smooth="yes" name="sh07"/>
      <point x="798" y="44"/>
      <point x="653" y="-24"/>
    </contour>
    <contour>
      <point x="901" y="887" type="line"/>
      <point x="909" y="951"/>
      <point x="914" y="1011"/>
      <point x="914" y="1067" type="curve" smooth="yes"/>
      <point x="914" y="1231"/>
      <point x="873" y="1343"/>
      <point x="766" y="1343" type="curve" smooth="yes"/>
      <point x="626" y="1343"/>
      <point x="522" y="1146"/>
      <point x="455" y="887" type="curve"/>
    </contour>
    <contour>
      <point x="546" y="209" type="curve" smooth="yes"/>
      <point x="691" y="209"/>
      <point x="793" y="415"/>
      <point x="857" y="662" type="curve"/>
      <point x="411" y="662" type="line"/>
      <point x="403" y="598"/>
      <point x="398" y="539"/>
      <point x="398" y="483" type="curve" smooth="yes"/>
      <point x="398" y="323"/>
      <point x="438" y="209"/>
    </contour>
  </outline>
</glyph>
<glyph name="uni03BC" format="1">
  <advance width="1233"/>
  <unicode hex="03BC"/>
  <outline>
    <contour>
      <point x="246" y="1120" type="line" name="at01"/>
      <point x="535" y="1120" type="line"/>
      <point x="403" y="440" type="line"/>
      <point x="395" y="403"/>
      <point x="391" y="371" name="sv01"/>
      <point x="391" y="346" type="curve" smooth="yes"/>
      <point x="391" y="262" name="at02"/>
      <point x="439" y="213"/>
      <point x="520" y="213" type="curve" smooth="yes"/>
      <point x="627" y="213"/>
      <point x="696" y="289"/>
      <point x="727" y="440" type="curve" name="dv02"/>
      <point x="858" y="1120" type="line" name="iv01"/>
      <point x="1147" y="1120" type="line"/>
      <point x="997" y="344" type="line" name="dv01"/>
      <point x="994" y="321" name="iv02"/>
      <point x="991" y="304" name="sv02"/>
      <point x="990" y="293" type="curve" smooth="yes" name="iv03"/>
      <point x="988" y="282" name="ab01"/>
      <point x="987" y="273"/>
      <point x="987" y="268" type="curve" smooth="yes"/>
      <point x="987" y="231"/>
      <point x="1001" y="213"/>
      <point x="1028" y="213" type="curve" smooth="yes"/>
      <point x="1044" y="213"/>
      <point x="1062" y="221"/>
      <point x="1090" y="238" type="curve"/>
      <point x="1047" y="16" type="line"/>
      <point x="986" y="-15"/>
      <point x="933" y="-29"/>
      <point x="885" y="-29" type="curve" smooth="yes"/>
      <point x="789" y="-29"/>
      <point x="741" y="17"/>
      <point x="725" y="129" type="curve"/>
      <point x="654" y="24"/>
      <point x="572" y="-29"/>
      <point x="479" y="-29" type="curve" smooth="yes"/>
      <point x="402" y="-29"/>
      <point x="350" y="2"/>
      <point x="330" y="66" type="curve"/>
      <point x="233" y="-428" type="line"/>
      <point x="-55" y="-428" type="line"/>
    </contour>
  </outline>
</glyph>
<glyph name="phi" format="1">
  <advance width="1233"/>
  <unicode hex="03C6"/>
  <outline>
    <contour>
      <point x="369" y="0" type="line" name="hr00"/>
      <point x="133" y="37" name="sh01"/>
      <point x="53" y="212"/>
      <point x="53" y="411" type="curve" smooth="yes" name="at01"/>
      <point x="53" y="647"/>
      <point x="165" y="894"/>
      <point x="272" y="996" type="curve" smooth="yes" name="sh02"/>
      <point x="339" y="1060" name="ih01"/>
      <point x="474" y="1128"/>
      <point x="556" y="1120" type="curve" name="at02"/>
      <point x="512" y="891" type="line"/>
      <point x="497" y="891" name="sh03"/>
      <point x="461" y="854"/>
      <point x="429" y="806" type="curve" smooth="yes" name="ab01"/>
      <point x="378" y="728"/>
      <point x="331" y="601" name="ih02"/>
      <point x="331" y="478" type="curve" smooth="yes"/>
      <point x="331" y="390" name="ah02"/>
      <point x="355" y="311" name="sh04"/>
      <point x="419" y="256" type="curve" name="sv01"/>
      <point x="495" y="648" type="line" smooth="yes"/>
      <point x="559" y="976" name="ah01"/>
      <point x="710" y="1130" name="sh05"/>
      <point x="917" y="1130" type="curve" smooth="yes"/>
      <point x="1022" y="1130"/>
      <point x="1103" y="1091"/>
      <point x="1148" y="1007" type="curve" smooth="yes"/>
      <point x="1183" y="943"/>
      <point x="1198" y="853"/>
      <point x="1198" y="750" type="curve" smooth="yes"/>
      <point x="1198" y="455"/>
      <point x="1063" y="48"/>
      <point x="661" y="0" type="curve"/>
      <point x="579" y="-426" type="line"/>
      <point x="287" y="-426" type="line"/>
    </contour>
    <contour>
      <point x="711" y="256" type="line"/>
      <point x="812" y="321"/>
      <point x="881" y="434"/>
      <point x="916" y="595" type="curve" smooth="yes"/>
      <point x="928" y="651"/>
      <point x="936" y="709"/>
      <point x="936" y="756" type="curve" smooth="yes"/>
      <point x="936" y="772"/>
      <point x="935" y="790"/>
      <point x="932" y="806" type="curve" smooth="yes"/>
      <point x="925" y="845"/>
      <point x="910" y="864"/>
      <point x="889" y="864" type="curve" smooth="yes"/>
      <point x="849" y="864"/>
      <point x="815" y="792"/>
      <point x="787" y="648" type="curve" smooth="yes"/>
    </contour>
  </outline>
</glyph>
<glyph name="omegatonos" format="1">
  <advance width="1233"/>
  <unicode hex="03CE"/>
  <outline>
    <contour>
      <point x="882" y="1648" type="line" name="av01"/>
      <point x="1203" y="1648" type="line" name="sh02"/>
      <point x="761" y="1272" type="line"/>
      <point x="564" y="1272" type="line" name="ih01"/>
    </contour>
    <contour>
      <point x="282" y="-29" type="curve" smooth="yes" name="dv01"/>
      <point x="194" y="-29"/>
      <point x="124" y="3" name="sh03"/>
      <point x="85" y="54" type="curve" smooth="yes" name="at01"/>
      <point x="51" y="99" name="ih02"/>
      <point x="34" y="171"/>
      <point x="34" y="271" type="curve" smooth="yes" name="sh04"/>
      <point x="34" y="518" name="sh05"/>
      <point x="132" y="881" name="dv02"/>
      <point x="284" y="1120" type="curve"/>
      <point x="546" y="1120" type="line"/>
      <point x="434" y="891"/>
      <point x="384" y="731" name="sv01"/>
      <point x="350" y="557" type="curve"/>
      <point x="326" y="446" name="ah02"/>
      <point x="310" y="326" name="sh06"/>
      <point x="310" y="271" type="curve" smooth="yes"/>
      <point x="310" y="256" name="sh01"/>
      <point x="311" y="245"/>
      <point x="313" y="237" type="curve" smooth="yes" name="sv02"/>
      <point x="317" y="220" name="ih03"/>
      <point x="330" y="210"/>
      <point x="352" y="209" type="curve" name="ah01"/>
      <point x="399" y="209" name="sh07"/>
      <point x="454" y="361"/>
      <point x="515" y="665" type="curve"/>
      <point x="767" y="665" type="line"/>
      <point x="736" y="500"/>
      <point x="721" y="381"/>
      <point x="721" y="305" type="curve" smooth="yes"/>
      <point x="721" y="241"/>
      <point x="732" y="209"/>
      <point x="754" y="209" type="curve"/>
      <point x="775" y="210"/>
      <point x="791" y="219"/>
      <point x="803" y="237" type="curve" smooth="yes"/>
      <point x="843" y="299"/>
      <point x="923" y="602"/>
      <point x="923" y="933" type="curve" smooth="yes"/>
      <point x="923" y="996"/>
      <point x="920" y="1058"/>
      <point x="914" y="1120" type="curve"/>
      <point x="1176" y="1120" type="line"/>
      <point x="1193" y="1045"/>
      <point x="1202" y="959"/>
      <point x="1202" y="864" type="curve" smooth="yes"/>
      <point x="1202" y="547"/>
      <point x="1105" y="183"/>
      <point x="959" y="54" type="curve" smooth="yes"/>
      <point x="900" y="3"/>
      <point x="815" y="-29"/>
      <point x="730" y="-29" type="curve" smooth="yes"/>
      <point x="613" y="-29"/>
      <point x="550" y="31"/>
      <point x="541" y="150" type="curve"/>
      <point x="485" y="31"/>
      <point x="399" y="-29"/>
    </contour>
  </outline>
</glyph>
<glyph name="uni03F4" format="1">
  <advance width="1233"/>
  <unicode hex="03F4"/>
  <outline>
    <contour>
      <point x="465" y="-29" type="curve" smooth="yes" name="dv01"/>
      <point x="194" y="-29" name="sh01"/>
      <point x="59" y="130"/>
      <point x="59" y="445" type="curve" smooth="yes" name="at01"/>
      <point x="59" y="533" name="sh02"/>
      <point x="70" y="633"/>
      <point x="92" y="745" type="curve" smooth="yes"/>
      <point x="191" y="1256" name="sh03"/>
      <point x="422" y="1520" name="ah02"/>
      <point x="767" y="1520" type="curve" smooth="yes" name="sv01"/>
      <point x="1039" y="1520"/>
      <point x="1174" y="1362" name="dv02"/>
      <point x="1174" y="1047" type="curve" smooth="yes" name="dv03"/>
      <point x="1174" y="958"/>
      <point x="1163" y="858" name="sh04"/>
      <point x="1141" y="745" type="curve" smooth="yes"/>
      <point x="1041" y="233" name="ah01"/>
      <point x="814" y="-29" name="sh05"/>
    </contour>
    <contour>
      <point x="860" y="911" type="line"/>
      <point x="864" y="955"/>
      <point x="867" y="995"/>
      <point x="867" y="1034" type="curve" smooth="yes"/>
      <point x="867" y="1166"/>
      <point x="833" y="1255"/>
      <point x="715" y="1255" type="curve" smooth="yes"/>
      <point x="564" y="1255"/>
      <point x="496" y="1112"/>
      <point x="437" y="911" type="curve"/>
    </contour>
    <contour>
      <point x="517" y="236" type="curve" smooth="yes"/>
      <point x="668" y="236"/>
      <point x="750" y="382"/>
      <point x="814" y="651" type="curve"/>
      <point x="383" y="651" type="line"/>
      <point x="372" y="576"/>
      <point x="366" y="513"/>
      <point x="366" y="457" type="curve" smooth="yes"/>
      <point x="366" y="312"/>
      <point x="408" y="236"/>
    </contour>
  </outline>
</glyph>
<glyph name="uni0405" format="1">
  <advance width="1233"/>
  <unicode hex="0405"/>
  <outline>
    <contour>
      <point x="469" y="-29" type="curve" smooth="yes" name="sh03"/>
      <point x="318" y="-29"/>
      <point x="169" y="5"/>
      <point x="4" y="76" type="curve" name="sh04"/>
      <point x="63" y="381" type="line" name="ah02"/>
      <point x="192" y="273"/>
      <point x="335" y="215"/>
      <point x="480" y="215" type="curve" smooth="yes" name="sh01"/>
      <point x="655" y="215" name="sh05"/>
      <point x="764" y="300"/>
      <point x="764" y="430" type="curve" smooth="yes"/>
      <point x="764" y="517" name="sh06"/>
      <point x="717" y="575" name="sh02"/>
      <point x="625" y="614" type="curve" smooth="yes"/>
      <point x="506" y="664" type="line" smooth="yes"/>
      <point x="255" y="768"/>
      <point x="190" y="850" name="sh07"/>
      <point x="190" y="1012" type="curve" smooth="yes"/>
      <point x="190" y="1320" name="ah01"/>
      <point x="427" y="1520" name="sh08"/>
      <point x="775" y="1520" type="curve" smooth="yes"/>
      <point x="904" y="1520"/>
      <point x="1038" y="1494"/>
      <point x="1159" y="1438" type="curve"/>
      <point x="1102" y="1153" type="line"/>
      <point x="1011" y="1236"/>
      <point x="879" y="1278"/>
      <point x="753" y="1278" type="curve" smooth="yes"/>
      <point x="544" y="1278"/>
      <point x="475" y="1162"/>
      <point x="475" y="1088" type="curve" smooth="yes"/>
      <point x="475" y="1023"/>
      <point x="527" y="967"/>
      <point x="659" y="910" type="curve" smooth="yes"/>
      <point x="666" y="907" type="line"/>
      <point x="782" y="856" type="line" smooth="yes"/>
      <point x="977" y="771"/>
      <point x="1063" y="653"/>
      <point x="1063" y="470" type="curve" smooth="yes"/>
      <point x="1063" y="171"/>
      <point x="832" y="-29"/>
    </contour>
  </outline>
</glyph>
<glyph name="uni0432" format="1">
  <advance width="1233"/>
  <unicode hex="0432"/>
  <outline>
    <contour>
      <point x="253" y="1120" type="line" name="at01"/>
      <point x="721" y="1120" type="line" smooth="yes"/>
      <point x="896" y="1120"/>
      <point x="997" y="1099" name="sh01"/>
      <point x="1060" y="1058" type="curve" smooth="yes" name="ih02"/>
      <point x="1116" y="1021" name="dh02"/>
      <point x="1147" y="965"/>
      <point x="1147" y="880" type="curve" smooth="yes" name="ab01"/>
      <point x="1147" y="752"/>
      <point x="1080" y="646" name="dv02"/>
      <point x="937" y="599" type="curve" name="ih01"/>
      <point x="1063" y="562"/>
      <point x="1100" y="475" name="sv01"/>
      <point x="1100" y="391" type="curve" smooth="yes"/>
      <point x="1100" y="372"/>
      <point x="1098" y="348" name="sv02"/>
      <point x="1093" y="321" type="curve" smooth="yes" name="dh01"/>
      <point x="1053" y="106"/>
      <point x="869" y="0" name="dv01"/>
      <point x="552" y="0" type="curve" smooth="yes"/>
      <point x="35" y="0" type="line"/>
    </contour>
    <contour>
      <point x="619" y="698" type="line" smooth="yes"/>
      <point x="796" y="698" name="sh02"/>
      <point x="856" y="732"/>
      <point x="856" y="807" type="curve" smooth="yes"/>
      <point x="856" y="842"/>
      <point x="843" y="864"/>
      <point x="826" y="876" type="curve" smooth="yes"/>
      <point x="807" y="890"/>
      <point x="775" y="901"/>
      <point x="658" y="901" type="curve" smooth="yes"/>
      <point x="502" y="901" type="line"/>
      <point x="463" y="698" type="line"/>
    </contour>
    <contour>
      <point x="537" y="219" type="line" smooth="yes"/>
      <point x="696" y="219"/>
      <point x="808" y="258"/>
      <point x="808" y="370" type="curve" smooth="yes"/>
      <point x="808" y="413"/>
      <point x="791" y="437"/>
      <point x="760" y="453" type="curve" smooth="yes"/>
      <point x="726" y="470"/>
      <point x="668" y="479"/>
      <point x="587" y="479" type="curve" smooth="yes"/>
      <point x="420" y="479" type="line"/>
      <point x="370" y="219" type="line"/>
    </contour>
  </outline>
</glyph>
<glyph name="uni04CC" format="1">
  <advance width="1233"/>
  <unicode hex="04CC"/>
  <outline>
    <contour>
      <point x="404" y="209" type="line" name="sv01"/>
      <point x="693" y="209" type="line"/>
      <point x="733" y="416" type="line" name="dv01"/>
      <point x="626" y="416" type="line" smooth="yes"/>
      <point x="472" y="416"/>
      <point x="350" y="450"/>
      <point x="261" y="517" type="curve" smooth="yes"/>
      <point x="257" y="520" type="line" smooth="yes"/>
      <point x="200" y="564" name="at01"/>
      <point x="168" y="630"/>
      <point x="168" y="717" type="curve" smooth="yes"/>
      <point x="168" y="748"/>
      <point x="171" y="781"/>
      <point x="178" y="813" type="curve"/>
      <point x="238" y="1120" type="line"/>
      <point x="537" y="1120" type="line" name="dv02"/>
      <point x="471" y="783" type="line" smooth="yes" name="at02"/>
      <point x="469" y="771"/>
      <point x="468" y="760" name="ab01"/>
      <point x="468" y="750" type="curve" smooth="yes"/>
      <point x="468" y="725" name="av01"/>
      <point x="475" y="704"/>
      <point x="488" y="689" type="curve" smooth="yes"/>
      <point x="492" y="684"/>
      <point x="498" y="679"/>
      <point x="506" y="672" type="curve" smooth="yes"/>
      <point x="538" y="646"/>
      <point x="592" y="633"/>
      <point x="668" y="633" type="curve" smooth="yes"/>
      <point x="775" y="633" type="line"/>
      <point x="870" y="1121" type="line"/>
      <point x="1160" y="1121" type="line"/>
      <point x="942" y="0" type="line"/>
      <point x="652" y="0" type="line"/>
      <point x="589" y="-324" type="line"/>
      <point x="300" y="-324" type="line"/>
    </contour>
  </outline>
</glyph>
<glyph name="uni04D7" format="1">
  <advance width="1233"/>
  <unicode hex="04D7"/>
  <outline>
    <contour>
      <point x="730" y="1299" type="curve" smooth="yes" name="dv03"/>
      <point x="539" y="1299"/>
      <point x="440" y="1384" name="dh03"/>
      <point x="440" y="1563" type="curve" smooth="yes" name="sv01"/>
      <point x="440" y="1596" type="line" name="dh04"/>
      <point x="584" y="1596" type="line" name="dv04"/>
      <point x="584" y="1583" type="line" smooth="yes" name="sv02"/>
      <point x="584" y="1502"/>
      <point x="646" y="1450"/>
      <point x="750" y="1450" type="curve" smooth="yes" name="dv01"/>
      <point x="855" y="1450" name="dh01"/>
      <point x="938" y="1504"/>
      <point x="971" y="1596" type="curve" name="dv08"/>
      <point x="1114" y="1596" type="line" name="dh06"/>
      <point x="1075" y="1411" name="dv05"/>
      <point x="946" y="1299"/>
    </contour>
    <contour>
      <point x="586" y="-29" type="curve" smooth="yes" name="dh02"/>
      <point x="249" y="-29" name="dv02"/>
      <point x="76" y="127" name="ih01"/>
      <point x="76" y="440" type="curve" smooth="yes"/>
      <point x="76" y="621"/>
      <point x="135" y="805" name="dv06"/>
      <point x="244" y="938" type="curve" smooth="yes" name="dh05"/>
      <point x="357" y="1075" name="dv07"/>
      <point x="513" y="1149" name="ih02"/>
      <point x="696" y="1149" type="curve" smooth="yes"/>
      <point x="972" y="1149" name="sh01"/>
      <point x="1155" y="975"/>
      <point x="1155" y="708" type="curve" smooth="yes"/>
      <point x="1155" y="652"/>
      <point x="1147" y="577"/>
      <point x="1128" y="465" type="curve"/>
      <point x="369" y="465" type="line"/>
      <point x="365" y="442"/>
      <point x="363" y="423"/>
      <point x="362" y="403" type="curve"/>
      <point x="362" y="270"/>
      <point x="451" y="203"/>
      <point x="630" y="203" type="curve" smooth="yes"/>
      <point x="771" y="203"/>
      <point x="919" y="244"/>
      <point x="1044" y="324" type="curve"/>
      <point x="993" y="55" type="line"/>
      <point x="865" y="-1"/>
      <point x="727" y="-29"/>
    </contour>
    <contour>
      <point x="876" y="684" type="line"/>
      <point x="881" y="702"/>
      <point x="883" y="720"/>
      <point x="883" y="739" type="curve" smooth="yes"/>
      <point x="883" y="851"/>
      <point x="812" y="920"/>
      <point x="689" y="920" type="curve" smooth="yes"/>
      <point x="560" y="920"/>
      <point x="463" y="841"/>
      <point x="410" y="684" type="curve"/>
    </contour>
  </outline>
</glyph>
<glyph name="uni04F0" format="1">
  <advance width="1233"/>
  <unicode hex="04F0"/>
  <outline>
    <contour>
      <point x="503" y="1608" type="line" smooth="yes" name="dv01"/>
      <point x="482" y="1608"/>
      <point x="473" y="1621"/>
      <point x="477" y="1641" type="curve" smooth="yes" name="dv02"/>
      <point x="515" y="1827" type="line" smooth="yes"/>
      <point x="519" y="1845"/>
      <point x="530" y="1854"/>
      <point x="547" y="1854" type="curve" smooth="yes"/>
      <point x="722" y="1854" type="line" smooth="yes" name="sv01"/>
      <point x="743" y="1854"/>
      <point x="752" y="1841"/>
      <point x="748" y="1821" type="curve" smooth="yes" name="sv02"/>
      <point x="711" y="1635" type="line" smooth="yes"/>
      <point x="708" y="1617"/>
      <point x="697" y="1608"/>
      <point x="679" y="1608" type="curve" smooth="yes"/>
    </contour>
    <contour>
      <point x="899" y="1608" type="line" smooth="yes" name="sv03"/>
      <point x="878" y="1608"/>
      <point x="869" y="1621"/>
      <point x="873" y="1641" type="curve" smooth="yes"/>
      <point x="910" y="1827" type="line" smooth="yes"/>
      <point x="913" y="1845" name="at01"/>
      <point x="923" y="1854"/>
      <point x="942" y="1854" type="curve" smooth="yes" name="iv01"/>
      <point x="1117" y="1854" type="line" smooth="yes" name="at02"/>
      <point x="1137" y="1854"/>
      <point x="1148" y="1841"/>
      <point x="1144" y="1821" type="curve" smooth="yes" name="ab01"/>
      <point x="1108" y="1635" type="line" smooth="yes"/>
      <point x="1105" y="1617"/>
      <point x="1094" y="1608"/>
      <point x="1076" y="1608" type="curve" smooth="yes"/>
    </contour>
    <contour>
      <point x="100" y="260" type="line"/>
      <point x="180" y="260" type="line" smooth="yes"/>
      <point x="217" y="260"/>
      <point x="246" y="263"/>
      <point x="266" y="268" type="curve" smooth="yes"/>
      <point x="310" y="280"/>
      <point x="359" y="320"/>
      <point x="402" y="396" type="curve" smooth="yes"/>
      <point x="485" y="541" type="line"/>
      <point x="183" y="1493" type="line"/>
      <point x="488" y="1493" type="line"/>
      <point x="684" y="873" type="line"/>
      <point x="1055" y="1493" type="line"/>
      <point x="1360" y="1493" type="line"/>
      <point x="651" y="303" type="line"/>
      <point x="528" y="99"/>
      <point x="406" y="0"/>
      <point x="250" y="0" type="curve" smooth="yes"/>
      <point x="50" y="0" type="line"/>
    </contour>
  </outline>
</glyph>
<glyph name="uni0536" format="1">
  <advance width="1233"/>
  <unicode hex="0536"/>
  <outline>
    <contour>
      <point x="23" y="331" type="line" name="sv01"/>
      <point x="318" y="331" type="line"/>
      <point x="304" y="260" type="line" name="sv02"/>
      <point x="413" y="261"/>
      <point x="538" y="326"/>
      <point x="646" y="439" type="curve" smooth="yes" name="dh01"/>
      <point x="748" y="546" name="dv01"/>
      <point x="838" y="698"/>
      <point x="878" y="894" type="curve" smooth="yes"/>
      <point x="889" y="951"/>
      <point x="895" y="1002"/>
      <point x="895" y="1047" type="curve" smooth="yes"/>
      <point x="895" y="1186" name="dv02"/>
      <point x="837" y="1255"/>
      <point x="710" y="1255" type="curve" smooth="yes" name="dh02"/>
      <point x="637" y="1255"/>
      <point x="570" y="1231"/>
      <point x="518" y="1179" type="curve" smooth="yes" name="sv03"/>
      <point x="466" y="1127" name="sv04"/>
      <point x="425" y="1044" name="ab01"/>
      <point x="405" y="935" type="curve" smooth="yes"/>
      <point x="394" y="875" type="line"/>
      <point x="99" y="875" type="line" name="sh01"/>
      <point x="103" y="897" type="line" smooth="yes"/>
      <point x="175" y="1286"/>
      <point x="390" y="1522"/>
      <point x="759" y="1522" type="curve" smooth="yes"/>
      <point x="938" y="1522"/>
      <point x="1063" y="1467"/>
      <point x="1135" y="1354" type="curve"/>
      <point x="1176" y="1287"/>
      <point x="1200" y="1202"/>
      <point x="1200" y="1082" type="curve" smooth="yes"/>
      <point x="1200" y="1027"/>
      <point x="1195" y="968"/>
      <point x="1178" y="888" type="curve" smooth="yes"/>
      <point x="1157" y="791"/>
      <point x="1120" y="680"/>
      <point x="1039" y="556" type="curve" smooth="yes"/>
      <point x="964" y="443"/>
      <point x="857" y="329"/>
      <point x="717" y="260" type="curve"/>
      <point x="996" y="260" type="line"/>
      <point x="946" y="0" type="line"/>
      <point x="-40" y="0" type="line"/>
    </contour>
  </outline>
</glyph>
<glyph name="uni0565" format="1">
  <advance width="1233"/>
  <unicode hex="0565"/>
  <outline>
    <contour>
      <point x="348" y="-29" type="curve" smooth="yes" name="sv02"/>
      <point x="181" y="-29" name="dh01"/>
      <point x="93" y="59"/>
      <point x="93" y="238" type="curve" smooth="yes" name="at01"/>
      <point x="93" y="285"/>
      <point x="99" y="335" name="at02"/>
      <point x="110" y="391" type="curve" smooth="yes"/>
      <point x="337" y="1556" type="line" name="sv03"/>
      <point x="630" y="1556" type="line"/>
      <point x="545" y="1120" type="line"/>
      <point x="1199" y="1120" type="line" name="dh02"/>
      <point x="1155" y="895" type="line" name="sv01"/>
      <point x="501" y="895" type="line"/>
      <point x="412" y="436" type="line" smooth="yes"/>
      <point x="404" y="396"/>
      <point x="400" y="362" name="ab01"/>
      <point x="400" y="333" type="curve" smooth="yes"/>
      <point x="400" y="252" name="iv01"/>
      <point x="436" y="211"/>
      <point x="508" y="211" type="curve" smooth="yes"/>
      <point x="620" y="211"/>
      <point x="700" y="301"/>
      <point x="735" y="477" type="curve" smooth="yes"/>
      <point x="782" y="720" type="line"/>
      <point x="1075" y="720" type="line"/>
      <point x="935" y="0" type="line"/>
      <point x="642" y="0" type="line"/>
      <point x="674" y="166" type="line"/>
      <point x="607" y="39"/>
      <point x="493" y="-29"/>
    </contour>
  </outline>
</glyph>
<glyph name="uni056D" format="1">
  <advance width="1233"/>
  <unicode hex="056D"/>
  <outline>
    <contour>
      <point x="261" y="1556" type="line" name="at01"/>
      <point x="498" y="1556" type="line"/>
      <point x="400" y="1044" type="line" name="iv01"/>
      <point x="456" y="1120" name="at04"/>
      <point x="525" y="1147" name="at02"/>
      <point x="601" y="1147" type="curve" smooth="yes"/>
      <point x="626" y="1147"/>
      <point x="663" y="1144"/>
      <point x="695" y="1125" type="curve" smooth="yes"/>
      <point x="723" y="1108"/>
      <point x="753" y="1074"/>
      <point x="766" y="1009" type="curve" smooth="yes" name="sv02"/>
      <point x="771" y="982"/>
      <point x="774" y="953"/>
      <point x="774" y="916" type="curve" smooth="yes" name="at03"/>
      <point x="774" y="864"/>
      <point x="768" y="799" name="ab02"/>
      <point x="753" y="719" type="curve" smooth="yes"/>
      <point x="693" y="401" type="line" smooth="yes" name="iv02"/>
      <point x="682" y="344" name="ab04"/>
      <point x="676" y="302" name="ab03"/>
      <point x="676" y="270" type="curve" smooth="yes"/>
      <point x="676" y="255"/>
      <point x="677" y="244"/>
      <point x="680" y="235" type="curve" smooth="yes"/>
      <point x="689" y="203"/>
      <point x="707" y="192"/>
      <point x="743" y="192" type="curve" smooth="yes" name="sv01"/>
      <point x="778" y="192"/>
      <point x="799" y="202"/>
      <point x="819" y="233" type="curve" smooth="yes" name="ab01"/>
      <point x="839" y="264"/>
      <point x="855" y="316"/>
      <point x="871" y="401" type="curve" smooth="yes"/>
      <point x="1010" y="1120" type="line"/>
      <point x="1250" y="1120" type="line"/>
      <point x="1033" y="0" type="line"/>
      <point x="820" y="0" type="line"/>
      <point x="842" y="116" type="line"/>
      <point x="787" y="24"/>
      <point x="705" y="-27"/>
      <point x="605" y="-27" type="curve" smooth="yes"/>
      <point x="574" y="-27"/>
      <point x="543" y="-22"/>
      <point x="514" y="-5" type="curve" smooth="yes"/>
      <point x="482" y="14"/>
      <point x="456" y="45"/>
      <point x="443" y="112" type="curve" smooth="yes"/>
      <point x="438" y="139"/>
      <point x="435" y="167"/>
      <point x="435" y="204" type="curve" smooth="yes"/>
      <point x="435" y="257"/>
      <point x="441" y="321"/>
      <point x="456" y="401" type="curve" smooth="yes"/>
      <point x="516" y="719" type="line" smooth="yes"/>
      <point x="527" y="776"/>
      <point x="533" y="817"/>
      <point x="533" y="850" type="curve" smooth="yes"/>
      <point x="533" y="863"/>
      <point x="532" y="875"/>
      <point x="529" y="886" type="curve" smooth="yes"/>
      <point x="521" y="914"/>
      <point x="506" y="928"/>
      <point x="467" y="928" type="curve" smooth="yes"/>
      <point x="434" y="928"/>
      <point x="410" y="918"/>
      <point x="390" y="887" type="curve" smooth="yes"/>
      <point x="370" y="856"/>
      <point x="354" y="804"/>
      <point x="338" y="719" type="curve" smooth="yes"/>
      <point x="116" y="-426" type="line"/>
      <point x="-123" y="-426" type="line"/>
    </contour>
  </outline>
</glyph>
<glyph name="uni0573" format="1">
  <advance width="1233"/>
  <unicode hex="0573"/>
  <outline>
    <contour>
      <point x="365" y="-29" type="curve" smooth="yes" name="sv02"/>
      <point x="244" y="-29"/>
      <point x="168" y="20" name="dh01"/>
      <point x="125" y="112" type="curve" smooth="yes"/>
      <point x="102" y="161" name="ih01"/>
      <point x="92" y="221"/>
      <point x="92" y="285" type="curve" smooth="yes" name="at01"/>
      <point x="92" y="336"/>
      <point x="97" y="386"/>
      <point x="108" y="439" type="curve" name="at03"/>
      <point x="135" y="581" name="at04"/>
      <point x="195" y="749"/>
      <point x="272" y="895" type="curve" name="iv01"/>
      <point x="167" y="895" type="line"/>
      <point x="211" y="1120" type="line" name="sv03"/>
      <point x="416" y="1120" type="line"/>
      <point x="509" y="1243" name="at02"/>
      <point x="608" y="1336"/>
      <point x="720" y="1407" type="curve" smooth="yes"/>
      <point x="831" y="1476"/>
      <point x="948" y="1517" name="ab01"/>
      <point x="1069" y="1517" type="curve" smooth="yes"/>
      <point x="1088" y="1517" name="iv02"/>
      <point x="1110" y="1516"/>
      <point x="1134" y="1512" type="curve" name="sv01"/>
      <point x="1146" y="1509"/>
      <point x="1178" y="1504"/>
      <point x="1193" y="1491" type="curve"/>
      <point x="1144" y="1243" type="line"/>
      <point x="1117" y="1263"/>
      <point x="1091" y="1274"/>
      <point x="1067" y="1281" type="curve" smooth="yes" name="dh02"/>
      <point x="1046" y="1286"/>
      <point x="1033" y="1287"/>
      <point x="1018" y="1287" type="curve" smooth="yes"/>
      <point x="955" y="1287"/>
      <point x="902" y="1269"/>
      <point x="851" y="1237" type="curve" smooth="yes"/>
      <point x="798" y="1204"/>
      <point x="750" y="1159"/>
      <point x="705" y="1106" type="curve"/>
      <point x="834" y="1079"/>
      <point x="936" y="1009"/>
      <point x="1000" y="917" type="curve" smooth="yes"/>
      <point x="1047" y="848"/>
      <point x="1072" y="767"/>
      <point x="1072" y="679" type="curve" smooth="yes"/>
      <point x="1072" y="648"/>
      <point x="1069" y="618"/>
      <point x="1063" y="587" type="curve" smooth="yes"/>
      <point x="949" y="0" type="line"/>
      <point x="656" y="0" type="line"/>
      <point x="688" y="166" type="line"/>
      <point x="623" y="41"/>
      <point x="506" y="-29"/>
    </contour>
    <contour>
      <point x="520" y="211" type="curve" smooth="yes"/>
      <point x="641" y="211"/>
      <point x="717" y="312"/>
      <point x="749" y="477" type="curve" smooth="yes"/>
      <point x="780" y="637" type="line" smooth="yes"/>
      <point x="782" y="648"/>
      <point x="783" y="659"/>
      <point x="783" y="670" type="curve" smooth="yes"/>
      <point x="783" y="711"/>
      <point x="770" y="755"/>
      <point x="742" y="794" type="curve" smooth="yes"/>
      <point x="706" y="843"/>
      <point x="643" y="881"/>
      <point x="562" y="892" type="curve"/>
      <point x="490" y="754"/>
      <point x="433" y="597"/>
      <point x="414" y="491" type="curve" smooth="yes"/>
      <point x="405" y="443"/>
      <point x="401" y="397"/>
      <point x="401" y="365" type="curve" smooth="yes"/>
      <point x="401" y="339"/>
      <point x="404" y="316"/>
      <point x="409" y="296" type="curve" smooth="yes"/>
      <point x="421" y="251"/>
      <point x="443" y="233"/>
      <point x="464" y="222" type="curve" smooth="yes"/>
      <point x="487" y="211"/>
      <point x="508" y="211"/>
    </contour>
  </outline>
</glyph>
<glyph name="uni057E" format="1">
  <advance width="1233"/>
  <unicode hex="057E"/>
  <outline>
    <contour>
      <point x="667" y="166" type="line" name="iv01"/>
      <point x="600" y="39" name="dv01"/>
      <point x="486" y="-29" name="dh01"/>
      <point x="341" y="-29" type="curve" smooth="yes"/>
      <point x="174" y="-29" name="at02"/>
      <point x="86" y="59"/>
      <point x="86" y="238" type="curve" smooth="yes"/>
      <point x="86" y="285" name="dh02"/>
      <point x="92" y="335" name="dv02"/>
      <point x="103" y="391" type="curve" smooth="yes"/>
      <point x="244" y="1120" type="line" name="at01"/>
      <point x="537" y="1120" type="line"/>
      <point x="404" y="436" type="line" smooth="yes" name="sv01"/>
      <point x="396" y="396"/>
      <point x="392" y="362" name="ab01"/>
      <point x="392" y="334" type="curve" smooth="yes"/>
      <point x="392" y="250"/>
      <point x="429" y="211"/>
      <point x="502" y="211" type="curve" smooth="yes"/>
      <point x="619" y="211"/>
      <point x="695" y="310"/>
      <point x="727" y="477" type="curve" smooth="yes"/>
      <point x="937" y="1556" type="line"/>
      <point x="1230" y="1556" type="line"/>
      <point x="889" y="-201" type="line"/>
      <point x="1027" y="-201" type="line"/>
      <point x="983" y="-426" type="line"/>
      <point x="552" y="-426" type="line"/>
    </contour>
  </outline>
</glyph>
<glyph name="uni10D0" format="1">
  <advance width="1233"/>
  <unicode hex="10D0"/>
  <outline>
    <contour>
      <point x="468" y="0" type="curve" smooth="yes" name="ab01"/>
      <point x="137" y="0" name="dh01"/>
      <point x="42" y="153"/>
      <point x="42" y="349" type="curve" smooth="yes"/>
      <point x="42" y="421" name="ih01"/>
      <point x="55" y="497"/>
      <point x="99" y="568" type="curve" smooth="yes" name="dh02"/>
      <point x="119" y="600" name="sv01"/>
      <point x="147" y="631"/>
      <point x="178" y="659" type="curve" name="dh05"/>
      <point x="419" y="625" type="line"/>
      <point x="388" y="590"/>
      <point x="365" y="539" name="dh03"/>
      <point x="354" y="490" type="curve" name="sh01"/>
      <point x="348" y="457"/>
      <point x="345" y="426" name="dh04"/>
      <point x="345" y="399" type="curve" smooth="yes"/>
      <point x="345" y="303"/>
      <point x="386" y="214" name="dh06"/>
      <point x="526" y="214" type="curve" smooth="yes" name="sh02"/>
      <point x="667" y="214"/>
      <point x="772" y="303"/>
      <point x="804" y="486" type="curve" smooth="yes" name="sh03"/>
      <point x="808" y="508"/>
      <point x="810" y="529"/>
      <point x="810" y="548" type="curve" smooth="yes"/>
      <point x="810" y="617"/>
      <point x="778" y="690"/>
      <point x="686" y="727" type="curve"/>
      <point x="687" y="727" type="line"/>
      <point x="482" y="802"/>
      <point x="447" y="930"/>
      <point x="447" y="1047" type="curve" smooth="yes"/>
      <point x="447" y="1087"/>
      <point x="451" y="1123"/>
      <point x="458" y="1162" type="curve"/>
      <point x="720" y="1162" type="line"/>
      <point x="715" y="1138"/>
      <point x="713" y="1116"/>
      <point x="713" y="1097" type="curve" smooth="yes"/>
      <point x="713" y="1038"/>
      <point x="734" y="979"/>
      <point x="789" y="958" type="curve"/>
      <point x="788" y="959" type="line"/>
      <point x="1007" y="879"/>
      <point x="1111" y="752"/>
      <point x="1111" y="595" type="curve" smooth="yes"/>
      <point x="1111" y="564"/>
      <point x="1107" y="532"/>
      <point x="1103" y="505" type="curve" smooth="yes"/>
      <point x="1052" y="178"/>
      <point x="825" y="0"/>
    </contour>
  </outline>
</glyph>
<glyph name="uni10D1" format="1">
  <advance width="1233"/>
  <unicode hex="10D1"/>
  <outline>
    <contour>
      <point x="480" y="0" type="curve" smooth="yes" name="ab01"/>
      <point x="199" y="0" name="dh01"/>
      <point x="56" y="123"/>
      <point x="56" y="370" type="curve" smooth="yes"/>
      <point x="56" y="425" name="sh01"/>
      <point x="62" y="484" name="dh03"/>
      <point x="73" y="535" type="curve"/>
      <point x="129" y="818" name="sh02"/>
      <point x="305" y="998" name="sh03"/>
      <point x="573" y="1063" type="curve"/>
      <point x="593" y="1168" type="line" smooth="yes" name="sh04"/>
      <point x="594" y="1175"/>
      <point x="595" y="1181" name="dh04"/>
      <point x="595" y="1188" type="curve" smooth="yes"/>
      <point x="595" y="1246"/>
      <point x="530" y="1263" name="sh05"/>
      <point x="491" y="1271" type="curve"/>
      <point x="436" y="1284"/>
      <point x="347" y="1309" name="sv01"/>
      <point x="347" y="1458" type="curve" smooth="yes"/>
      <point x="347" y="1487" name="ih01"/>
      <point x="350" y="1519"/>
      <point x="357" y="1552" type="curve"/>
      <point x="657" y="1552" type="line"/>
      <point x="654" y="1541"/>
      <point x="653" y="1530" name="dh02"/>
      <point x="653" y="1519" type="curve" smooth="yes"/>
      <point x="653" y="1475"/>
      <point x="675" y="1449"/>
      <point x="719" y="1440" type="curve" name="sh06"/>
      <point x="846" y="1392"/>
      <point x="867" y="1316"/>
      <point x="867" y="1243" type="curve" smooth="yes"/>
      <point x="867" y="1220"/>
      <point x="865" y="1197"/>
      <point x="860" y="1174" type="curve" smooth="yes"/>
      <point x="838" y="1059" type="line"/>
      <point x="1065" y="971"/>
      <point x="1121" y="813"/>
      <point x="1121" y="676" type="curve" smooth="yes"/>
      <point x="1121" y="636"/>
      <point x="1116" y="582"/>
      <point x="1108" y="534" type="curve" smooth="yes"/>
      <point x="1052" y="201"/>
      <point x="836" y="0"/>
    </contour>
    <contour>
      <point x="524" y="214" type="curve" smooth="yes"/>
      <point x="665" y="214"/>
      <point x="760" y="326"/>
      <point x="799" y="535" type="curve" smooth="yes"/>
      <point x="810" y="591"/>
      <point x="815" y="646"/>
      <point x="815" y="687" type="curve" smooth="yes"/>
      <point x="815" y="767"/>
      <point x="792" y="831"/>
      <point x="745" y="863" type="curve" smooth="yes"/>
      <point x="720" y="880"/>
      <point x="690" y="887"/>
      <point x="659" y="887" type="curve" smooth="yes"/>
      <point x="624" y="887"/>
      <point x="590" y="879"/>
      <point x="558" y="862" type="curve" smooth="yes"/>
      <point x="501" y="833"/>
      <point x="449" y="779"/>
      <point x="409" y="683" type="curve"/>
      <point x="372" y="599"/>
      <point x="351" y="491"/>
      <point x="351" y="417" type="curve" smooth="yes"/>
      <point x="351" y="389"/>
      <point x="354" y="338"/>
      <point x="377" y="294" type="curve" smooth="yes"/>
      <point x="405" y="241"/>
      <point x="454" y="214"/>
    </contour>
  </outline>
</glyph>
<glyph name="uni10E9" format="1">
  <advance width="1233"/>
  <unicode hex="10E9"/>
  <outline>
    <contour>
      <point x="247" y="1183" type="line" smooth="yes" name="hr00"/>
      <point x="296" y="1435" name="dv02"/>
      <point x="466" y="1550" name="dh02"/>
      <point x="761" y="1550" type="curve" smooth="yes"/>
      <point x="1044" y="1550"/>
      <point x="1134" y="1444"/>
      <point x="1134" y="1288" type="curve" smooth="yes" name="sh01"/>
      <point x="1134" y="1248"/>
      <point x="1128" y="1186" name="ab01"/>
      <point x="1081" y="1114" type="curve" smooth="yes"/>
      <point x="1062" y="1085"/>
      <point x="1028" y="1043" name="dh01"/>
      <point x="993" y="1000" type="curve"/>
      <point x="1054" y="963" name="dv03"/>
      <point x="1107" y="903"/>
      <point x="1139" y="824" type="curve" smooth="yes" name="ab02"/>
      <point x="1170" y="749"/>
      <point x="1172" y="682" name="iv01"/>
      <point x="1172" y="651" type="curve" smooth="yes"/>
      <point x="1172" y="616" name="dv04"/>
      <point x="1168" y="581"/>
      <point x="1161" y="545" type="curve" smooth="yes"/>
      <point x="1121" y="336"/>
      <point x="996" y="148"/>
      <point x="792" y="0" type="curve" name="dv01"/>
      <point x="476" y="0" type="line"/>
      <point x="688" y="169"/>
      <point x="832" y="357" name="sh02"/>
      <point x="869" y="552" type="curve" smooth="yes"/>
      <point x="876" y="591"/>
      <point x="880" y="628"/>
      <point x="880" y="664" type="curve" smooth="yes"/>
      <point x="880" y="682"/>
      <point x="879" y="736"/>
      <point x="847" y="781" type="curve" smooth="yes"/>
      <point x="811" y="832"/>
      <point x="752" y="853"/>
      <point x="685" y="853" type="curve" smooth="yes"/>
      <point x="544" y="853"/>
      <point x="459" y="759"/>
      <point x="427" y="595" type="curve" smooth="yes"/>
      <point x="311" y="0" type="line"/>
      <point x="17" y="0" type="line"/>
    </contour>
    <contour>
      <point x="497" y="955" type="line"/>
      <point x="537" y="995"/>
      <point x="574" y="1020"/>
      <point x="613" y="1033" type="curve" smooth="yes"/>
      <point x="649" y="1045"/>
      <point x="698" y="1051"/>
      <point x="759" y="1050" type="curve" smooth="yes"/>
      <point x="815" y="1049" type="line"/>
      <point x="857" y="1191" type="line"/>
      <point x="860" y="1210"/>
      <point x="862" y="1226"/>
      <point x="862" y="1247" type="curve" smooth="yes"/>
      <point x="862" y="1262"/>
      <point x="861" y="1292"/>
      <point x="834" y="1315" type="curve"/>
      <point x="807" y="1336"/>
      <point x="757" y="1343"/>
      <point x="722" y="1343" type="curve" smooth="yes"/>
      <point x="622" y="1343"/>
      <point x="563" y="1295"/>
      <point x="540" y="1175" type="curve" smooth="yes"/>
    </contour>
  </outline>
</glyph>
<glyph name="uni10FA" format="1">
  <advance width="1233"/>
  <unicode hex="10FA"/>
  <outline>
    <contour>
      <point x="543" y="-195" type="line" name="av01"/>
      <point x="550" y="-164"/>
      <point x="551" y="-137"/>
      <point x="551" y="-118" type="curve" smooth="yes" name="ab01"/>
      <point x="551" y="-99"/>
      <point x="549" y="-75" name="ab02"/>
      <point x="533" y="-52" type="curve" smooth="yes" name="ih01"/>
      <point x="513" y="-24"/>
      <point x="478" y="-8" name="sh03"/>
      <point x="441" y="-8" type="curve" smooth="yes" name="sh01"/>
      <point x="385" y="-8" name="sh04"/>
      <point x="327" y="-46" name="dv02"/>
      <point x="251" y="-142" type="curve" name="sh05"/>
      <point x="58" y="-18" type="line" name="sh06"/>
      <point x="122" y="56"/>
      <point x="192" y="104"/>
      <point x="268" y="127" type="curve" name="sh07"/>
      <point x="212" y="186" name="ah02"/>
      <point x="172" y="257" name="dv01"/>
      <point x="149" y="342" type="curve" name="sh08"/>
      <point x="138" y="378" name="sh09"/>
      <point x="132" y="416" name="sh02"/>
      <point x="131" y="443" type="curve" smooth="yes"/>
      <point x="130" y="464"/>
      <point x="129" y="486" name="ab03"/>
      <point x="129" y="501" type="curve" smooth="yes"/>
      <point x="129" y="532" name="ah01"/>
      <point x="133" y="569" name="sh10"/>
      <point x="142" y="614" type="curve" smooth="yes"/>
      <point x="201" y="909"/>
      <point x="391" y="1064"/>
      <point x="750" y="1067" type="curve"/>
      <point x="1009" y="1044"/>
      <point x="1146" y="950"/>
      <point x="1146" y="774" type="curve" smooth="yes"/>
      <point x="1146" y="743"/>
      <point x="1142" y="714"/>
      <point x="1138" y="693" type="curve" smooth="yes"/>
      <point x="1115" y="576"/>
      <point x="1033" y="413"/>
      <point x="881" y="197" type="curve"/>
      <point x="665" y="295" type="line"/>
      <point x="770" y="459"/>
      <point x="830" y="584"/>
      <point x="849" y="676" type="curve"/>
      <point x="852" y="695"/>
      <point x="854" y="712"/>
      <point x="854" y="728" type="curve" smooth="yes"/>
      <point x="854" y="811"/>
      <point x="801" y="854"/>
      <point x="697" y="854" type="curve" smooth="yes"/>
      <point x="558" y="854"/>
      <point x="468" y="777"/>
      <point x="437" y="616" type="curve"/>
      <point x="429" y="580"/>
      <point x="424" y="530"/>
      <point x="424" y="509" type="curve"/>
      <point x="423" y="488"/>
      <point x="423" y="476"/>
      <point x="423" y="473" type="curve" smooth="yes"/>
      <point x="423" y="401"/>
      <point x="436" y="349"/>
      <point x="471" y="293" type="curve" smooth="yes"/>
      <point x="488" y="264"/>
      <point x="510" y="236"/>
      <point x="535" y="209" type="curve"/>
      <point x="647" y="174"/>
      <point x="743" y="104"/>
      <point x="811" y="-4" type="curve"/>
    </contour>
  </outline>
</glyph>
<glyph name="uni2070" format="1">
  <advance width="1233"/>
  <unicode hex="2070"/>
  <outline>
    <contour>
      <point x="586" y="1103" type="curve" smooth="yes" name="dv01"/>
      <point x="409" y="1103" name="dh01"/>
      <point x="303" y="1188"/>
      <point x="303" y="1372" type="curve" smooth="yes" name="dv04"/>
      <point x="303" y="1503" name="dh06"/>
      <point x="356" y="1699"/>
      <point x="433" y="1807" type="curve" smooth="yes"/>
      <point x="508" y="1914" name="dv02"/>
      <point x="622" y="1970"/>
      <point x="766" y="1970" type="curve" smooth="yes" name="dh05"/>
      <point x="942" y="1970" name="dv03"/>
      <point x="1050" y="1884"/>
      <point x="1050" y="1703" type="curve" smooth="yes" name="dh02"/>
      <point x="1050" y="1581"/>
      <point x="1000" y="1379"/>
      <point x="917" y="1264" type="curve"/>
      <point x="844" y="1160" name="dh03"/>
      <point x="734" y="1103" name="sv01"/>
    </contour>
    <contour>
      <point x="608" y="1241" type="curve" smooth="yes" name="dh04"/>
      <point x="679" y="1241"/>
      <point x="721" y="1287"/>
      <point x="756" y="1356" type="curve" smooth="yes" name="sh01"/>
      <point x="805" y="1456"/>
      <point x="841" y="1616"/>
      <point x="841" y="1707" type="curve" smooth="yes"/>
      <point x="841" y="1791"/>
      <point x="812" y="1831"/>
      <point x="744" y="1831" type="curve" smooth="yes"/>
      <point x="677" y="1831"/>
      <point x="632" y="1793"/>
      <point x="595" y="1717" type="curve" smooth="yes"/>
      <point x="549" y="1623"/>
      <point x="511" y="1461"/>
      <point x="511" y="1366" type="curve" smooth="yes"/>
      <point x="511" y="1283"/>
      <point x="543" y="1241"/>
    </contour>
    <contour>
      <point x="674" y="1466" type="curve" smooth="yes"/>
      <point x="650" y="1466"/>
      <point x="629" y="1473"/>
      <point x="612" y="1486" type="curve" smooth="yes"/>
      <point x="595" y="1499"/>
      <point x="586" y="1516"/>
      <point x="586" y="1535" type="curve" smooth="yes"/>
      <point x="586" y="1576"/>
      <point x="626" y="1607"/>
      <point x="674" y="1607" type="curve" smooth="yes"/>
      <point x="722" y="1607"/>
      <point x="765" y="1576"/>
      <point x="765" y="1537" type="curve" smooth="yes"/>
      <point x="765" y="1498"/>
      <point x="725" y="1466"/>
    </contour>
  </outline>
</glyph>
<glyph name="uni2076" format="1">
  <advance width="1233"/>
  <unicode hex="2076"/>
  <outline>
    <contour>
      <point x="596" y="1103" type="curve" smooth="yes" name="dv01"/>
      <point x="397" y="1103" name="sh01"/>
      <point x="289" y="1196"/>
      <point x="289" y="1391" type="curve" smooth="yes" name="dv04"/>
      <point x="289" y="1535"/>
      <point x="349" y="1707"/>
      <point x="452" y="1818" type="curve" smooth="yes" name="dv03"/>
      <point x="546" y="1919" name="ih01"/>
      <point x="676" y="1970" name="dv06"/>
      <point x="843" y="1970" type="curve" smooth="yes" name="sh02"/>
      <point x="916" y="1970"/>
      <point x="974" y="1960" name="dv02"/>
      <point x="1050" y="1936" type="curve" name="ah02"/>
      <point x="1014" y="1787" type="line" name="dv05"/>
      <point x="958" y="1819" name="sh03"/>
      <point x="889" y="1837"/>
      <point x="821" y="1837" type="curve" smooth="yes" name="ah01"/>
      <point x="676" y="1837" name="sh04"/>
      <point x="570" y="1756"/>
      <point x="526" y="1599" type="curve"/>
      <point x="582" y="1644"/>
      <point x="654" y="1672"/>
      <point x="742" y="1672" type="curve" smooth="yes"/>
      <point x="897" y="1672"/>
      <point x="996" y="1584"/>
      <point x="996" y="1434" type="curve" smooth="yes"/>
      <point x="996" y="1244"/>
      <point x="839" y="1103"/>
    </contour>
    <contour>
      <point x="609" y="1237" type="curve" smooth="yes"/>
      <point x="716" y="1237"/>
      <point x="791" y="1329"/>
      <point x="791" y="1425" type="curve" smooth="yes"/>
      <point x="791" y="1501"/>
      <point x="744" y="1539"/>
      <point x="675" y="1539" type="curve" smooth="yes"/>
      <point x="568" y="1539"/>
      <point x="493" y="1448"/>
      <point x="493" y="1352" type="curve" smooth="yes"/>
      <point x="493" y="1276"/>
      <point x="538" y="1237"/>
    </contour>
  </outline>
</glyph>
<glyph name="uni2079" format="1">
  <advance width="1233"/>
  <unicode hex="2079"/>
  <outline>
    <contour>
      <point x="496" y="1103" type="curve" smooth="yes" name="dv01"/>
      <point x="432" y="1103"/>
      <point x="372" y="1109"/>
      <point x="289" y="1136" type="curve" name="dv02"/>
      <point x="325" y="1286" type="line" name="ih01"/>
      <point x="382" y="1253" name="dv05"/>
      <point x="451" y="1236" name="sh01"/>
      <point x="519" y="1236" type="curve" smooth="yes" name="dv04"/>
      <point x="668" y="1236" name="sh02"/>
      <point x="769" y="1317"/>
      <point x="814" y="1474" type="curve"/>
      <point x="756" y="1425" name="dv06"/>
      <point x="685" y="1401" name="ah02"/>
      <point x="600" y="1401" type="curve" smooth="yes" name="dv03"/>
      <point x="443" y="1401" name="sh03"/>
      <point x="346" y="1488"/>
      <point x="346" y="1636" type="curve" smooth="yes" name="ah01"/>
      <point x="346" y="1820" name="sh04"/>
      <point x="495" y="1970"/>
      <point x="744" y="1970" type="curve" smooth="yes"/>
      <point x="943" y="1970"/>
      <point x="1050" y="1877"/>
      <point x="1050" y="1682" type="curve" smooth="yes"/>
      <point x="1050" y="1541"/>
      <point x="992" y="1365"/>
      <point x="888" y="1253" type="curve" smooth="yes"/>
      <point x="792" y="1149"/>
      <point x="663" y="1103"/>
    </contour>
    <contour>
      <point x="665" y="1533" type="curve" smooth="yes"/>
      <point x="772" y="1533"/>
      <point x="847" y="1627"/>
      <point x="847" y="1721" type="curve" smooth="yes"/>
      <point x="847" y="1798"/>
      <point x="798" y="1836"/>
      <point x="730" y="1836" type="curve" smooth="yes"/>
      <point x="627" y="1836"/>
      <point x="551" y="1747"/>
      <point x="551" y="1648" type="curve" smooth="yes"/>
      <point x="551" y="1571"/>
      <point x="596" y="1533"/>
    </contour>
  </outline>
</glyph>
<glyph name="uni207E" format="1">
  <advance width="1233"/>
  <unicode hex="207E"/>
  <outline>
    <contour>
      <point x="383" y="517" type="line" name="av02"/>
      <point x="579" y="750" name="dh01"/>
      <point x="677" y="975" name="av01"/>
      <point x="677" y="1193" type="curve" smooth="yes"/>
      <point x="677" y="1301" name="dh02"/>
      <point x="654" y="1413" name="av03"/>
      <point x="606" y="1538" type="curve"/>
      <point x="748" y="1538" type="line"/>
      <point x="816" y="1410"/>
      <point x="850" y="1286"/>
      <point x="850" y="1167" type="curve" smooth="yes"/>
      <point x="850" y="950"/>
      <point x="742" y="734"/>
      <point x="525" y="517" type="curve"/>
    </contour>
  </outline>
</glyph>
<glyph name="Omega" format="1">
  <advance width="1233"/>
  <unicode hex="2126"/>
  <outline>
    <contour>
      <point x="-10" y="211" type="line" name="sv01"/>
      <point x="228" y="211" type="line" name="ih01"/>
      <point x="133" y="315" name="sh01"/>
      <point x="90" y="430"/>
      <point x="90" y="582" type="curve" smooth="yes" name="dv02"/>
      <point x="90" y="642" name="sh03"/>
      <point x="97" y="709"/>
      <point x="111" y="782" type="curve" smooth="yes" name="ih02"/>
      <point x="191" y="1192" name="sv02"/>
      <point x="440" y="1460" name="ab01"/>
      <point x="758" y="1460" type="curve" smooth="yes"/>
      <point x="1016" y="1460"/>
      <point x="1165" y="1282"/>
      <point x="1165" y="989" type="curve" smooth="yes" name="ah02"/>
      <point x="1165" y="925"/>
      <point x="1158" y="856" name="dv01"/>
      <point x="1144" y="782" type="curve" smooth="yes"/>
      <point x="1096" y="528" name="sh02"/>
      <point x="992" y="355"/>
      <point x="805" y="211" type="curve" name="ab02"/>
      <point x="1043" y="211" type="line"/>
      <point x="1002" y="0" type="line" name="ah01"/>
      <point x="531" y="0" type="line" name="sh04"/>
      <point x="583" y="268" type="line"/>
      <point x="720" y="381"/>
      <point x="790" y="527"/>
      <point x="835" y="748" type="curve" smooth="yes"/>
      <point x="851" y="828"/>
      <point x="859" y="898"/>
      <point x="859" y="957" type="curve" smooth="yes"/>
      <point x="859" y="1004"/>
      <point x="854" y="1044"/>
      <point x="844" y="1078" type="curve" smooth="yes"/>
      <point x="821" y="1157"/>
      <point x="775" y="1194"/>
      <point x="708" y="1194" type="curve" smooth="yes"/>
      <point x="568" y="1194"/>
      <point x="459" y="1024"/>
      <point x="405" y="748" type="curve" smooth="yes"/>
      <point x="391" y="676"/>
      <point x="384" y="611"/>
      <point x="384" y="552" type="curve" smooth="yes"/>
      <point x="384" y="431"/>
      <point x="414" y="337"/>
      <point x="474" y="268" type="curve"/>
      <point x="422" y="0" type="line"/>
      <point x="-51" y="0" type="line"/>
    </contour>
  </outline>
</glyph>
<glyph name="uni21A9" format="1">
  <advance width="1233"/>
  <unicode hex="21A9"/>
  <outline>
    <contour>
      <point x="66" y="490" type="line" name="hr00"/>
      <point x="66" y="632" type="line"/>
      <point x="357" y="923" type="line"/>
      <point x="477" y="803" type="line"/>
      <point x="347" y="673" type="line"/>
      <point x="871" y="673" type="line" smooth="yes" name="dv02"/>
      <point x="887" y="673"/>
      <point x="907" y="679"/>
      <point x="922" y="694" type="curve" smooth="yes"/>
      <point x="938" y="709" name="dh01"/>
      <point x="943" y="729" name="av01"/>
      <point x="943" y="745" type="curve" smooth="yes"/>
      <point x="943" y="764" name="dh02"/>
      <point x="937" y="783"/>
      <point x="922" y="796" type="curve" smooth="yes" name="dv01"/>
      <point x="910" y="808"/>
      <point x="891" y="818"/>
      <point x="871" y="818" type="curve" name="av02"/>
      <point x="871" y="1042" type="line"/>
      <point x="958" y="1042" name="sh01"/>
      <point x="1029" y="1007"/>
      <point x="1080" y="956" type="curve" smooth="yes"/>
      <point x="1141" y="895"/>
      <point x="1167" y="821"/>
      <point x="1167" y="746" type="curve" smooth="yes"/>
      <point x="1167" y="662"/>
      <point x="1135" y="589"/>
      <point x="1080" y="534" type="curve" smooth="yes"/>
      <point x="1035" y="489"/>
      <point x="964" y="449"/>
      <point x="871" y="449" type="curve" smooth="yes"/>
      <point x="347" y="449" type="line"/>
      <point x="477" y="319" type="line"/>
      <point x="357" y="199" type="line"/>
    </contour>
  </outline>
</glyph>
<glyph name="uni225D" format="1">
  <advance width="1233"/>
  <unicode hex="225D"/>
  <outline>
    <contour>
      <point x="257" y="1073" type="curve" smooth="yes" name="sv01"/>
      <point x="173" y="1073" name="dh01"/>
      <point x="116" y="1143" name="sv02"/>
      <point x="116" y="1245" type="curve" smooth="yes" name="iv01"/>
      <point x="116" y="1346" name="dh03"/>
      <point x="173" y="1416" name="dh04"/>
      <point x="257" y="1416" type="curve" smooth="yes" name="sv03"/>
      <point x="298" y="1416" name="sh01"/>
      <point x="333" y="1399" name="ih01"/>
      <point x="362" y="1360" type="curve"/>
      <point x="362" y="1535" type="line" name="dh07"/>
      <point x="467" y="1535" type="line" name="dv04"/>
      <point x="467" y="1081" type="line"/>
      <point x="362" y="1081" type="line" name="sh04"/>
      <point x="362" y="1129" type="line"/>
      <point x="335" y="1092" name="dv03"/>
      <point x="300" y="1073" name="sh03"/>
    </contour>
    <contour>
      <point x="915" y="1333" type="line"/>
      <point x="863" y="1333" type="line"/>
      <point x="863" y="1408" type="line" name="sh05"/>
      <point x="915" y="1408" type="line" name="sv04"/>
      <point x="915" y="1431" type="line" smooth="yes"/>
      <point x="915" y="1503" name="sh02"/>
      <point x="953" y="1535" name="dh08"/>
      <point x="1037" y="1535" type="curve" smooth="yes" name="sv05"/>
      <point x="1117" y="1535" type="line" name="sv06"/>
      <point x="1117" y="1467" type="line" name="sv07"/>
      <point x="1059" y="1467" type="line" smooth="yes" name="dh05"/>
      <point x="1030" y="1467" name="dv05"/>
      <point x="1019" y="1458" name="dh06"/>
      <point x="1019" y="1431" type="curve" smooth="yes" name="dv06"/>
      <point x="1019" y="1408" type="line"/>
      <point x="1108" y="1408" type="line" name="av01"/>
      <point x="1108" y="1333" type="line" name="ih02"/>
      <point x="1019" y="1333" type="line"/>
      <point x="1019" y="1081" type="line"/>
      <point x="915" y="1081" type="line" name="dv07"/>
    </contour>
    <contour>
      <point x="676" y="1073" type="curve" smooth="yes" name="sv08"/>
      <point x="555" y="1073"/>
      <point x="487" y="1135" name="av02"/>
      <point x="487" y="1243" type="curve" smooth="yes" name="sh06"/>
      <point x="487" y="1351" name="sv09"/>
      <point x="556" y="1416" name="dh02"/>
      <point x="664" y="1416" type="curve" smooth="yes"/>
      <point x="773" y="1416"/>
      <point x="838" y="1350" name="dv09"/>
      <point x="838" y="1246" type="curve" smooth="yes" name="dv08"/>
      <point x="838" y="1216" type="line"/>
      <point x="594" y="1216" type="line"/>
      <point x="598" y="1167" name="dv02"/>
      <point x="629" y="1142" name="dv01"/>
      <point x="686" y="1142" type="curve" smooth="yes"/>
      <point x="727" y="1142"/>
      <point x="774" y="1155" name="sh07"/>
      <point x="822" y="1182" type="curve"/>
      <point x="822" y="1101" type="line"/>
      <point x="773" y="1082"/>
      <point x="723" y="1073"/>
    </contour>
    <contour>
      <point x="730" y="1280" type="line"/>
      <point x="730" y="1320"/>
      <point x="706" y="1346"/>
      <point x="666" y="1346" type="curve" smooth="yes"/>
      <point x="627" y="1346"/>
      <point x="600" y="1323"/>
      <point x="595" y="1280" type="curve"/>
    </contour>
    <contour>
      <point x="293" y="1149" type="curve" smooth="yes"/>
      <point x="338" y="1149"/>
      <point x="362" y="1182"/>
      <point x="362" y="1245" type="curve" smooth="yes"/>
      <point x="362" y="1308"/>
      <point x="339" y="1340"/>
      <point x="293" y="1340" type="curve" smooth="yes"/>
      <point x="248" y="1340"/>
      <point x="225" y="1308"/>
      <point x="225" y="1245" type="curve" smooth="yes"/>
      <point x="225" y="1182"/>
      <point x="249" y="1149"/>
    </contour>
    <contour>
      <point x="88" y="987" type="line"/>
      <point x="1145" y="987" type="line"/>
      <point x="1145" y="752" type="line"/>
      <point x="88" y="752" type="line"/>
    </contour>
    <contour>
      <point x="88" y="532" type="line"/>
      <point x="1145" y="532" type="line"/>
      <point x="1145" y="295" type="line"/>
      <point x="88" y="295" type="line"/>
    </contour>
  </outline>
</glyph>
<glyph name="uni228B" format="1">
  <advance width="1233"/>
  <unicode hex="228B"/>
  <outline>
    <contour>
      <point x="316" y="-108" type="line" name="hr00"/>
      <point x="370" y="-40" type="line" name="sv01"/>
      <point x="88" y="-40" type="line"/>
      <point x="88" y="198" type="line"/>
      <point x="560" y="198" type="line" name="dv02"/>
      <point x="654" y="315" type="line" name="dv05"/>
      <point x="88" y="315" type="line"/>
      <point x="88" y="540" type="line"/>
      <point x="658" y="540" type="line" smooth="yes" name="dv06"/>
      <point x="802" y="540" name="dh01"/>
      <point x="920" y="650" name="dv03"/>
      <point x="920" y="818" type="curve" smooth="yes"/>
      <point x="920" y="983"/>
      <point x="805" y="1096" name="dv04"/>
      <point x="658" y="1096" type="curve" smooth="yes" name="dh02"/>
      <point x="88" y="1096" type="line"/>
      <point x="88" y="1321" type="line" name="iv01"/>
      <point x="658" y="1321" type="line" smooth="yes"/>
      <point x="930" y="1321" name="sv02"/>
      <point x="1145" y="1107" name="sh01"/>
      <point x="1145" y="817" type="curve" smooth="yes"/>
      <point x="1145" y="684" name="dv01"/>
      <point x="1100" y="561" name="av01"/>
      <point x="1003" y="457" type="curve" smooth="yes"/>
      <point x="948" y="398" name="sh02"/>
      <point x="893" y="365"/>
      <point x="824" y="341" type="curve"/>
      <point x="917" y="266" type="line"/>
      <point x="863" y="198" type="line"/>
      <point x="1145" y="198" type="line"/>
      <point x="1145" y="-40" type="line"/>
      <point x="673" y="-40" type="line"/>
      <point x="500" y="-256" type="line"/>
    </contour>
  </outline>
</glyph>
<glyph name="uni228D" format="1">
  <advance width="1233"/>
  <unicode hex="228D"/>
  <outline>
    <contour>
      <point x="616" y="-29" type="curve" smooth="yes" name="dv01"/>
      <point x="232" y="-29" name="dh01"/>
      <point x="90" y="134" name="av01"/>
      <point x="90" y="582" type="curve" smooth="yes"/>
      <point x="90" y="1284" type="line" name="dh02"/>
      <point x="328" y="1284" type="line" name="dv02"/>
      <point x="328" y="602" type="line" smooth="yes" name="dh05"/>
      <point x="328" y="291" name="av02"/>
      <point x="392" y="214"/>
      <point x="616" y="214" type="curve" smooth="yes" name="dh06"/>
      <point x="841" y="214"/>
      <point x="905" y="292" name="dh03"/>
      <point x="905" y="602" type="curve" smooth="yes" name="dh04"/>
      <point x="905" y="1284" type="line" name="dv03"/>
      <point x="1143" y="1284" type="line"/>
      <point x="1143" y="582" type="line" smooth="yes"/>
      <point x="1143" y="134" name="sh01"/>
      <point x="999" y="-29"/>
    </contour>
    <contour>
      <point x="489" y="765" type="line"/>
      <point x="742" y="765" type="line"/>
      <point x="742" y="500" type="line"/>
      <point x="489" y="500" type="line"/>
    </contour>
  </outline>
</glyph>
<glyph name="uni23AA" format="1">
  <advance width="1233"/>
  <unicode hex="23AA"/>
  <outline>
    <contour>
      <point x="476" y="1913" type="line" name="dh01"/>
      <point x="758" y="1913" type="line" name="dh02"/>
      <point x="758" y="-524" type="line" name="av01"/>
      <point x="476" y="-524" type="line"/>
    </contour>
  </outline>
</glyph>
<glyph name="uni23AE" format="1">
  <advance width="1233"/>
  <unicode hex="23AE"/>
  <outline>
    <contour>
      <point x="485" y="1926" type="line" name="dh01"/>
      <point x="741" y="1926" type="line" name="dh02"/>
      <point x="741" y="-512" type="line" name="av01"/>
      <point x="485" y="-512" type="line"/>
    </contour>
  </outline>
</glyph>
<glyph name="SF030000" format="1">
  <advance width="1233"/>
  <unicode hex="2510"/>
  <outline>
    <contour>
      <point x="536" y="618" type="line" name="dh01"/>
      <point x="-20" y="618" type="line"/>
      <point x="-20" y="790" type="line"/>
      <point x="696" y="790" type="line" name="dh02"/>
      <point x="696" y="-512" type="line" name="av01"/>
      <point x="536" y="-512" type="line"/>
    </contour>
  </outline>
</glyph>
<glyph name="uni2526" format="1">
  <advance width="1233"/>
  <unicode hex="2526"/>
  <outline>
    <contour>
      <point x="536" y="618" type="line" name="ih01"/>
      <point x="-20" y="618" type="line"/>
      <point x="-20" y="790" type="line"/>
      <point x="456" y="790" type="line" name="dh01"/>
      <point x="456" y="1921" type="line" name="av01"/>
      <point x="776" y="1921" type="line"/>
      <point x="776" y="618" type="line" name="dh02"/>
      <point x="696" y="618" type="line" name="sh01"/>
      <point x="696" y="-512" type="line" name="av02"/>
      <point x="536" y="-512" type="line"/>
    </contour>
  </outline>
</glyph>
<glyph name="uni25DC" format="1">
  <advance width="1233"/>
  <unicode hex="25DC"/>
  <outline>
    <contour>
      <point x="311" y="532" type="line" name="dh01"/>
      <point x="311" y="771"/>
      <point x="413" y="943" name="av01"/>
      <point x="616" y="1060" type="curve"/>
      <point x="716" y="1119"/>
      <point x="816" y="1148" name="dh02"/>
      <point x="921" y="1148" type="curve"/>
      <point x="922" y="1025" type="line"/>
      <point x="841" y="1025"/>
      <point x="759" y="1001"/>
      <point x="678" y="954" type="curve" smooth="yes"/>
      <point x="521" y="863"/>
      <point x="434" y="729"/>
      <point x="434" y="532" type="curve"/>
    </contour>
  </outline>
</glyph>
<glyph name="uni2A6B" format="1">
  <advance width="1233"/>
  <unicode hex="2A6B"/>
  <outline>
    <contour>
      <point x="691" y="1277" type="line" name="ah02"/>
      <point x="1024" y="1277" type="line" name="sh01"/>
      <point x="1024" y="912" type="line" name="dv01"/>
      <point x="691" y="912" type="line"/>
    </contour>
    <contour>
      <point x="850" y="468" type="curve" smooth="yes" name="dv02"/>
      <point x="778" y="468"/>
      <point x="726" y="484"/>
      <point x="645" y="519" type="curve" smooth="yes" name="dv04"/>
      <point x="612" y="533" type="line" smooth="yes" name="iv01"/>
      <point x="522" y="570"/>
      <point x="468" y="591" name="dv05"/>
      <point x="385" y="591" type="curve" smooth="yes"/>
      <point x="280" y="591"/>
      <point x="192" y="558"/>
      <point x="88" y="470" type="curve" name="dv03"/>
      <point x="88" y="699" type="line"/>
      <point x="192" y="779"/>
      <point x="287" y="814"/>
      <point x="390" y="814" type="curve" smooth="yes" name="sh02"/>
      <point x="463" y="814" name="sh03"/>
      <point x="533" y="796" name="ab01"/>
      <point x="621" y="759" type="curve"/>
      <point x="622" y="759" type="line" name="ah01"/>
      <point x="652" y="745" type="line" smooth="yes" name="sh04"/>
      <point x="725" y="710"/>
      <point x="797" y="691"/>
      <point x="865" y="691" type="curve" smooth="yes"/>
      <point x="958" y="691"/>
      <point x="1045" y="728"/>
      <point x="1145" y="816" type="curve"/>
      <point x="1145" y="582" type="line"/>
      <point x="1053" y="509"/>
      <point x="959" y="468"/>
    </contour>
    <contour>
      <point x="210" y="365" type="line"/>
      <point x="543" y="365" type="line"/>
      <point x="543" y="0" type="line"/>
      <point x="210" y="0" type="line"/>
    </contour>
  </outline>
</glyph>
<glyph name="nine.subs" format="1">
  <advance width="1233"/>
  <outline>
    <contour>
      <point x="496" y="-435" type="curve" smooth="yes" name="dv01"/>
      <point x="432" y="-435"/>
      <point x="372" y="-429"/>
      <point x="289" y="-402" type="curve" name="dv02"/>
      <point x="325" y="-252" type="line" name="ih01"/>
      <point x="382" y="-285" name="dv05"/>
      <point x="451" y="-302" name="sh01"/>
      <point x="519" y="-302" type="curve" smooth="yes" name="dv04"/>
      <point x="668" y="-302" name="sh02"/>
      <point x="769" y="-221"/>
      <point x="814" y="-64" type="curve"/>
      <point x="756" y="-113" name="dv06"/>
      <point x="685" y="-137" name="ah02"/>
      <point x="600" y="-137" type="curve" smooth="yes" name="dv03"/>
      <point x="443" y="-137" name="sh03"/>
      <point x="346" y="-50"/>
      <point x="346" y="98" type="curve" smooth="yes" name="ah01"/>
      <point x="346" y="282" name="sh04"/>
      <point x="495" y="432"/>
      <point x="744" y="432" type="curve" smooth="yes"/>
      <point x="943" y="432"/>
      <point x="1050" y="339"/>
      <point x="1050" y="144" type="curve" smooth="yes"/>
      <point x="1050" y="3"/>
      <point x="992" y="-173"/>
      <point x="888" y="-285" type="curve" smooth="yes"/>
      <point x="792" y="-389"/>
      <point x="663" y="-435"/>
    </contour>
    <contour>
      <point x="665" y="-5" type="curve" smooth="yes"/>
      <point x="772" y="-5"/>
      <point x="847" y="89"/>
      <point x="847" y="183" type="curve" smooth="yes"/>
      <point x="847" y="260"/>
      <point x="798" y="298"/>
      <point x="730" y="298" type="curve" smooth="yes"/>
      <point x="627" y="298"/>
      <point x="551" y="209"/>
      <point x="551" y="110" type="curve" smooth="yes"/>
      <point x="551" y="33"/>
      <point x="596" y="-5"/>
    </contour>
  </outline>
</glyph>
<glyph name="questiondown.case" format="1">
  <advance width="1233"/>
  <outline>
    <contour>
      <point x="739" y="1222" type="curve" smooth="yes" name="sv01"/>
      <point x="692" y="1222"/>
      <point x="662" y="1239"/>
      <point x="639" y="1264" type="curve" smooth="yes"/>
      <point x="618" y="1288"/>
      <point x="603" y="1323"/>
      <point x="603" y="1360" type="curve" smooth="yes" name="at01"/>
      <point x="603" y="1390" type="line" smooth="yes"/>
      <point x="603" y="1403"/>
      <point x="610" y="1425"/>
      <point x="618" y="1441" type="curve" smooth="yes"/>
      <point x="629" y="1462" name="ab01"/>
      <point x="646" y="1493" name="dh01"/>
      <point x="677" y="1517" type="curve" smooth="yes"/>
      <point x="708" y="1541"/>
      <point x="745" y="1556"/>
      <point x="790" y="1556" type="curve" smooth="yes"/>
      <point x="853" y="1556"/>
      <point x="900" y="1529"/>
      <point x="921" y="1469" type="curve" smooth="yes"/>
      <point x="927" y="1452"/>
      <point x="930" y="1433"/>
      <point x="930" y="1413" type="curve" smooth="yes"/>
      <point x="930" y="1349" name="dh02"/>
      <point x="905" y="1305" name="sv02"/>
      <point x="870" y="1274" type="curve" smooth="yes" name="iv01"/>
      <point x="835" y="1242"/>
      <point x="790" y="1222"/>
    </contour>
    <contour>
      <point x="458" y="-27" type="curve" smooth="yes"/>
      <point x="230" y="-27"/>
      <point x="90" y="93"/>
      <point x="90" y="275" type="curve" smooth="yes"/>
      <point x="90" y="393"/>
      <point x="149" y="504"/>
      <point x="305" y="631" type="curve" smooth="yes"/>
      <point x="410" y="717" type="line"/>
      <point x="418" y="724" type="line" smooth="yes"/>
      <point x="506" y="801"/>
      <point x="552" y="874"/>
      <point x="571" y="969" type="curve"/>
      <point x="594" y="1092" type="line"/>
      <point x="860" y="1092" type="line"/>
      <point x="831" y="938" type="line" smooth="yes"/>
      <point x="804" y="793"/>
      <point x="750" y="727"/>
      <point x="631" y="621" type="curve" smooth="yes"/>
      <point x="526" y="528" type="line"/>
      <point x="511" y="515" type="line" smooth="yes"/>
      <point x="412" y="428"/>
      <point x="371" y="373"/>
      <point x="371" y="317" type="curve" smooth="yes"/>
      <point x="371" y="253"/>
      <point x="422" y="209"/>
      <point x="522" y="209" type="curve" smooth="yes"/>
      <point x="629" y="209"/>
      <point x="771" y="258"/>
      <point x="924" y="354" type="curve"/>
      <point x="872" y="86" type="line"/>
      <point x="736" y="13"/>
      <point x="591" y="-27"/>
    </contour>
  </outline>
</glyph>
<glyph name="uni030B.case" format="1">
  <advance width="0"/>
  <outline>
    <contour>
      <point x="-546" y="1899" type="line" name="dv02"/>
      <point x="-262" y="1899" type="line"/>
      <point x="-599" y="1635" type="line" name="dv01"/>
      <point x="-796" y="1635" type="line"/>
    </contour>
    <contour>
      <point x="-171" y="1899" type="line" name="sv01"/>
      <point x="113" y="1899" type="line"/>
      <point x="-224" y="1635" type="line" name="sv02"/>
      <point x="-421" y="1635" type="line"/>
    </contour>
  </outline>
</glyph>
